<?xml version="1.0" encoding="UTF-8" standalone="no"?>
<!-- Created with Inkscape (http://www.inkscape.org/) -->

<svg
   xmlns:dc="http://purl.org/dc/elements/1.1/"
   xmlns:cc="http://creativecommons.org/ns#"
   xmlns:rdf="http://www.w3.org/1999/02/22-rdf-syntax-ns#"
   xmlns:svg="http://www.w3.org/2000/svg"
   xmlns="http://www.w3.org/2000/svg"
   xmlns:sodipodi="http://sodipodi.sourceforge.net/DTD/sodipodi-0.dtd"
   xmlns:inkscape="http://www.inkscape.org/namespaces/inkscape"
   id="svg3624"
   version="1.1"
   inkscape:version="0.91 r13725"
   width="1024"
   height="1024"
   viewBox="0 0 10024 1024"
   sodipodi:docname="cloud-rain.svg">
  <metadata
     id="metadata3630">
    <rdf:RDF>
      <cc:Work
         rdf:about="">
        <dc:format>image/svg+xml</dc:format>
        <dc:type
           rdf:resource="http://purl.org/dc/dcmitype/StillImage" />
        <dc:title />
      </cc:Work>
    </rdf:RDF>
  </metadata>
  <defs
     id="defs3628" />
  <sodipodi:namedview
     pagecolor="#ffffff"
     bordercolor="#666666"
     borderopacity="1"
     objecttolerance="10"
     gridtolerance="10"
     guidetolerance="10"
     inkscape:pageopacity="0"
     inkscape:pageshadow="2"
     inkscape:window-width="1834"
     inkscape:window-height="808"
     id="namedview3626"
     showgrid="false"
     inkscape:zoom="0.33159723"
     inkscape:cx="202.96948"
     inkscape:cy="503.18827"
     inkscape:window-x="0"
     inkscape:window-y="0"
     inkscape:window-maximized="0"
     inkscape:current-layer="svg3624" />
  <path
     style="fill:#a0d000;fill-opacity:0.8"
     d="m 2629.1991,5521.4969 c -50.7353,-7.9675 -119.3125,-37.9986 -132.9379,-58.2163 -32.8787,-48.7867 38.2761,-86.4937 179.3155,-95.0334 80.7357,-4.8846 101.4398,-1.9937 155.8686,21.7462 51.6531,22.5289 62.766,32.97 62.766,58.9583 0,25.2315 -9.8217,35.2629 -48.818,49.8612 -49.508,18.5378 -165.2649,30.6846 -216.1942,22.684 z m 261.1597,-247.8216 c -25.1891,-20.0035 6.2864,-42.3514 59.6445,-42.3514 59.2037,0 90.2543,26.6935 50.6355,43.5292 -36.786,15.6358 -89.8219,15.0672 -110.28,-1.1814 z m 139.2634,-83.0711 c -25.1938,-8.0265 5.9466,-36.8135 39.8238,-36.8135 33.4117,0 49.6782,22.0379 25.3116,34.2955 -21.0997,10.6109 -37.7146,11.2534 -65.1354,2.5106 z m 52.8872,-102.2329 c 0,-53.2394 -51.1692,-105.637 -146.4588,-149.9822 -59.431,-27.6609 -71.6336,-28.8755 -344.6338,-34.325 -414.3177,-8.2738 -868.8251,-26.7009 -946.3015,-38.3677 -37.1682,-5.5972 -216.9655,-15.5067 -399.5494,-22.0232 C 557.95463,4819.1396 169.62542,4766.7346 41.626429,4681.2082 17.428964,4665.0371 0,4642.6226 0,4627.6735 c 0,-46.8374 130.53753,-112.5153 295.72191,-148.786 61.13178,-13.4243 65.06,-16.4629 57.91909,-44.8141 -10.97383,-43.5699 41.81705,-69.4179 224.15841,-109.7536 157.08336,-34.7459 223.16067,-65.6262 310.79176,-145.2305 37.26031,-33.8487 47.34047,-58.4415 79.45578,-193.8327 20.22969,-85.2863 49.11975,-197.4324 64.19995,-249.2135 41.4055,-142.1771 106.2716,-411.0914 132.9542,-551.1862 20.5444,-107.8707 21.6027,-145.7991 7.8184,-280.2341 -17.7234,-172.8581 -40.9929,-718.4768 -47.7032,-1118.5327 -2.4084,-143.462 -9.4447,-267.3561 -15.6413,-275.3162 -6.1962,-7.9638 -4.4354,-32.6377 3.9101,-54.8307 9.1271,-24.2752 21.1433,-269.8778 30.1528,-616.31402 8.2387,-316.77797 20.738,-665.67682 27.7766,-775.330722 7.0385,-109.653906 16.3856,-383.788668 20.7713,-609.188438 4.3844,-225.39969 11.6406,-496.14152 16.123,-601.64922 l 8.1493,-191.8316 57.7397,7.5835 c 31.7568,4.172 62.4466,9.795 68.2001,12.4976 5.7536,2.6952 10.9023,571.5812 11.4416,1264.173002 0.5997,768.260448 6.1328,1267.894598 14.1958,1281.411198 8.3595,14.0114 10.507,-451.2609 5.8446,-1266.236823 l -7.3705,-1288.389177 31.5317,3.5443 31.5319,3.5444 7.2311,1406.671415 c 5.2318,1017.754485 11.6488,1415.857285 23.2104,1439.899885 12.1491,25.2647 16.2661,-311.203 17.1778,-1403.90239 l 1.1997,-1437.13081 34.87,0 34.87,0 1.3901,1558.96847 c 0.7625,857.43083 6.4156,1571.42923 12.5578,1586.65893 6.1417,15.2297 11.7931,-686.308 12.5574,-1558.96854 1.2274,-1402.48826 3.8172,-1586.65886 22.3122,-1586.65886 18.4978,0 21.0828,192.1712 22.3121,1658.65386 0.7625,912.25784 6.4156,1671.11464 12.5579,1686.34434 6.1418,15.2296 11.793,-731.1664 12.5578,-1658.65395 0.9206,-1116.1107 6.1065,-1686.34425 15.3382,-1686.34425 7.6715,0 13.9871,6.2285 14.0345,13.8452 0.041,7.613 0.01,787.21171 -0.093,1732.43582 -0.1394,1529.65368 2.2596,1726.91258 21.9342,1794.28508 12.1585,41.6316 24.8056,77.8395 28.1053,80.4609 3.3009,2.6213 5.8874,-804.8118 5.7516,-1794.2888 -0.1395,-989.47707 -0.1859,-1804.6561 -0.1395,-1811.5086 0.093,-6.8524 15.7148,-12.4606 34.7711,-12.4606 l 34.6469,0 3.71,1985.08292 c 2.5246,1349.71418 8.3432,1990.05978 18.185,2000.63018 7.9614,8.5507 16.4177,30.5 18.7917,48.7756 2.3758,18.2757 6.8443,35.3034 9.9338,37.8435 3.0917,2.5476 5.6177,-913.3211 5.6177,-2035.24305 0,-1122.63085 5.3643,-2039.85815 11.9311,-2039.85815 18.0948,0 29.6968,129.063 29.8701,332.28456 0.093,100.5161 6.9611,327.30032 15.2787,503.96493 8.3173,176.66468 20.0847,722.44211 26.1498,1212.83879 10.5689,854.54362 10.9524,830.23892 9.2298,-584.26707 -1.3296,-1090.5654 2.3154,-1475.89741 13.9634,-1475.89741 25.2653,0 38.3071,1232.436155 27.4813,2596.9111 -5.2663,663.7717 -4.5983,1202.9035 1.4876,1198.0706 6.0847,-4.8292 14.2011,-861.9241 18.0368,-1904.65156 4.6168,-1254.82109 11.6903,-1895.19994 20.9219,-1893.88934 7.6715,1.0707 24.8014,-5.8186 38.066,-15.3514 19.9532,-14.34 25.2547,-14.6833 30.6972,-1.9938 3.6173,8.4438 12.0683,610.97173 18.7774,1338.9518834 l 12.1979,1323.6002166 2.4364,-1341.709748 2.4361,-1341.709752 34.379,-17.8881 c 18.9089,-9.8393 37.7388,-17.8879 41.8442,-17.8879 4.1052,0 8.1688,963.21177 9.0289,2140.46654 1.325,1814.69846 4.3844,2128.66676 20.1079,2062.93356 14.9992,-62.7133 18.641,-471.9993 19.0507,-2141.1275 0.2789,-1134.98075 4.3425,-2068.5268 9.0299,-2074.5487 5.4295,-6.978 15.6654,-6.2431 28.2034,2.0306 14.1488,9.3263 19.68,9.4775 19.68,0.5538 0,-6.8375 6.2767,-12.4311 13.9481,-12.4311 9.2192,0 15.1067,547.30965 17.3649,1614.34933 l 3.4172,1614.34557 7.0442,-1617.11463 c 7.0033,-1607.86977 7.2031,-1617.11837 34.9398,-1617.11837 31.5443,0 27.2893,-38.7444 48.0485,437.50806 l 11.8284,271.36578 -1.9898,-351.15834 c -1.4368,-253.3523 2.5106,-354.7286 14.1771,-363.992 26.4049,-20.9708 46.3539,-1.0707 48.5893,48.4657 l 2.0968,46.42 8.3661,-49.8425 c 8.1093,-48.3143 9.8639,-49.8428 57.1839,-49.8428 l 48.818,0 -4.3144,420.8938 c -4.2729,416.85841 -0.3256,481.617 52.4844,863.93989 30.4178,220.149609 46.1125,685.38132 33.8164,1002.38819 -14.0037,361.01982 -12.6494,533.95552 8.8459,1129.76762 19.61,543.5437 32.7165,618.5219 256.5591,1467.5902 60.5971,229.8598 85.6882,395.1307 68.098,448.5658 -16.7609,50.9133 -65.175,65.9511 -129.8531,40.3283 -25.34,-10.0387 -49.225,-15.7503 -53.0775,-12.6896 -12.8083,10.1716 40.2062,142.9451 89.1065,223.1696 60.9221,99.9439 134.7135,155.2472 217.7358,163.1814 33.2009,3.1751 160.7908,11.2422 283.5332,17.9286 574.7359,31.3122 1103.2888,107.9592 1306.9532,189.524 139.7968,55.9863 169.2124,102.8901 98.3085,156.7497 -143.0229,108.6423 -644.6192,186.515 -1412.2357,219.2524 -149.5923,6.38 -323.9151,14.3031 -387.3835,17.6075 l -115.3984,6.0069 56.5805,32.5455 c 31.1194,17.9027 68.9023,48.5984 83.9629,68.2106 29.1113,37.9137 36.7525,101.8046 13.5383,113.1946 -8.4163,4.1314 -13.948,-10.8325 -13.948,-37.7254 z M 2754.0338,4878.109 c -7.2879,-5.4162 -69.74,-22.3701 -138.7827,-37.6737 -114.4824,-25.3718 -138.007,-27.0111 -267.2614,-18.6411 -77.9513,5.047 -247.4195,13.1104 -376.5963,17.9211 l -234.8667,8.7428 125.5321,8.7465 c 69.0427,4.8107 295.0003,12.9074 502.1282,17.995 207.1279,5.084 382.5589,10.0388 389.8468,11.0024 8.3688,1.1076 8.3688,-1.883 0,-8.093 z m 1046.7978,-28.5174 c 619.0847,-42.6174 1067.0225,-139.9435 1067.0225,-231.8424 0,-33.653 -31.5857,-54.7457 -140.9237,-94.114 -158.2057,-56.9647 -476.3722,-111.3191 -850.2649,-145.2563 -280.5998,-25.4715 -324.941,-26.6493 -364.8412,-9.6917 -25.104,10.67 -7.9852,16.6179 123.736,42.9828 270.967,54.2363 394.5766,124.6769 315.2125,179.6257 -39.764,27.5317 -172.3287,61.5132 -290.5831,74.4871 -60.7324,6.6642 -173.1881,24.3639 -249.9022,39.3351 -180.0962,35.1447 -416.3024,66.8557 -631.1472,84.7326 -93.9748,7.8198 -170.7831,16.8948 -170.6856,20.166 0.093,3.2859 51.8801,19.5051 115.0712,36.0713 l 114.8933,30.1235 355.6742,-4.6667 c 195.6207,-2.5476 468.6531,-12.446 606.7382,-21.953 z m -2740.7832,-41.6389 c -354.43785,-61.4949 -466.07302,-89.9532 -556.1553,-141.7711 -70.83447,-40.7492 -84.36683,-76.1264 -45.63833,-119.316 l 28.59713,-31.892 -45.55651,-17.253 c -43.14862,-16.341 -52.14602,-15.5582 -170.19916,14.8052 -165.27132,42.5066 -235.055977,74.5757 -240.373421,110.4625 -2.422305,16.3484 6.280786,35.451 20.92201,45.9217 82.065411,58.6962 422.559021,116.0042 834.053621,140.3828 213.04226,12.6195 253.03816,12.3131 174.34996,-1.3291 z m 1262.2946,-6.487 c 52.6417,-8.3772 46.7337,-10.2418 -104.61,-32.959 -215.8998,-32.4125 -502.5908,-63.8539 -781.0883,-85.6666 -221.7256,-17.3674 -613.49251,-79.1612 -821.43904,-129.5688 l -89.1687,-21.6133 -35.10064,27.8713 c -33.81878,26.856 -34.24605,28.9088 -11.70329,56.2299 46.79094,56.7062 237.58572,112.3381 570.62087,166.3712 93.8283,15.226 189.4264,29.9352 212.4407,32.6895 67.6395,8.0929 999.017,-3.6552 1060.0484,-13.3542 z m 511.0968,-40.8378 c 140.8243,-15.2076 262.3201,-27.8196 269.9916,-28.0263 7.6714,-0.3692 1.3948,-6.3245 -13.948,-13.5868 -19.3287,-9.1488 -139.2718,-13.8931 -390.5443,-15.4402 -553.7655,-3.3966 -801.7796,-11.8883 -905.3032,-30.9541 -51.5406,-9.4923 -141.9642,-16.6511 -200.9414,-15.9091 l -107.2318,1.3661 153.428,14.6981 c 248.0816,23.7694 606.114,70.2007 711.3484,92.2533 133.5786,27.9894 187.9851,27.4946 483.2007,-4.3825 z m 409.4717,-60.9594 c 19.6689,-6.7121 3.2173,-9.5218 -55.7921,-9.5218 -59.0071,0 -75.461,2.8059 -55.7921,9.5218 15.3429,5.2353 40.4493,9.5181 55.7921,9.5181 15.3428,0 40.4492,-4.2828 55.7921,-9.5181 z m -1112.6442,-39.9221 c -4.6353,-3.6922 -16.6651,-4.0724 -26.7337,-0.8861 -11.1267,3.5443 -7.8215,6.162 8.427,6.6936 14.7035,0.48 22.9416,-2.1414 18.3067,-5.8186 z m 195.2722,0 c -4.6354,-3.6922 -16.6651,-4.0724 -26.7337,-0.8861 -11.1268,3.5443 -7.8217,6.162 8.4269,6.6936 14.7035,0.48 22.9417,-2.1414 18.3068,-5.8186 z m 666.3078,-4.3825 c -10.0026,-12.8521 -81.9696,-12.8521 -132.506,0 -25.8391,6.5682 -12.0795,9.1525 53.1284,9.9685 55.4358,0.7015 84.8081,-2.9906 79.3776,-9.9685 z m 226.655,-7.5355 c 17.2607,-3.249 31.3831,-10.2935 31.3831,-15.61 0,-18.3569 -67.7282,-23.0642 -146.0701,-10.1495 -67.5352,11.1353 -76.1612,15.3073 -61.2191,29.6029 16.8827,16.1528 77.2952,14.8347 175.9061,-3.8434 z m 444.4045,-30.3745 c 100.1927,-36.4258 130.9509,-57.7326 130.9509,-90.7174 0,-30.7326 -80.448,-71.0941 -194.3168,-97.4886 -90.8712,-21.0632 -94.931,-21.2994 -73.485,-4.268 9.2057,7.3103 16.7376,21.7461 16.7376,32.0802 0,22.5548 -82.4972,82.1666 -148.0789,106.9994 -27.161,10.286 -47.193,26.1286 -47.193,37.3192 0,10.6959 -6.5813,22.6766 -14.6256,26.6271 -9.7082,4.7627 -9.9853,11.6152 -0.8276,20.3801 24.2859,23.2378 236.3825,3.3967 330.8357,-30.932 z m -2222.7752,30.0902 c -17.2607,-2.6583 -45.5053,-2.6583 -62.766,0 -17.2607,2.6583 -3.1383,4.7997 31.383,4.7997 34.5213,0 48.6437,-2.1783 31.383,-4.7997 z m 1370.3917,-15.8648 c 76.7139,-7.2069 131.6821,-15.1964 122.1514,-17.755 -21.5835,-5.8002 -382.7857,28.6097 -393.3783,37.4743 -4.2542,3.5444 23.6497,3.5444 62.0067,0 38.3571,-3.6182 132.506,-12.4422 209.2202,-19.6454 z m -1537.7678,4.7886 c -17.2607,-2.6582 -45.5053,-2.6582 -62.766,0 -17.2606,2.6214 -3.1382,4.7997 31.3831,4.7997 34.5213,0 48.6437,-2.1783 31.3829,-4.7997 z m -104.9006,-9.9501 c -4.6353,-3.692 -16.6651,-4.0722 -26.7336,-0.8861 -11.1268,3.5444 -7.8216,6.1622 8.4269,6.6938 14.7034,0.4799 22.9416,-2.1414 18.3067,-5.8187 z m 488.2318,-14.3104 c -1.8597,-19.5973 -16.6944,-21.0963 -222.2364,-22.4181 -270.0807,-1.7352 -501.19741,-22.2003 -592.97991,-52.5046 -46.75266,-15.4365 -81.10337,-51.781 -66.57796,-70.4444 11.81773,-15.1854 -5.90514,-13.6162 -83.58574,7.4026 -61.0965,16.5331 -65.08281,19.6306 -42.29038,32.863 78.17348,45.3937 335.16916,85.519 697.56639,108.9118 321.1026,20.7308 312.4422,20.8379 310.104,-3.8103 z m 192.9242,-1.5875 c -143.4408,-21.2108 -174.2282,-19.7488 -146.3234,6.9522 12.1446,11.6188 50.7716,15.3589 150.618,14.5835 l 134.2854,-1.0337 -138.58,-20.4909 z m 855.2974,-5.719 c 95.0095,-8.4178 175.6449,-17.6074 179.1886,-20.4207 8.2307,-6.5349 -84.9778,-43.8874 -153.3285,-61.4431 -42.4243,-10.899 -83.7797,-10.1827 -216.1942,3.74 -90.0544,9.4664 -211.8456,20.225 -270.6466,23.906 -80.5429,5.0434 -112.9171,11.966 -131.2582,28.0597 -13.3906,11.748 -19.9368,24.8659 -14.5473,29.145 33.0345,26.232 291.364,24.9619 606.7862,-2.9906 z m 1082.5754,16.1047 c 157.8579,-34.1514 184.1751,-68.3731 87.7083,-114.0548 -65.4264,-30.9837 -77.0362,-30.4742 -51.304,2.2521 22.1127,28.1187 -9.6748,71.0167 -71.4059,96.3663 -69.6001,28.5801 -55.1658,34.9489 35.0016,15.4438 z m -1725.1164,-37.6478 c 15.407,-26.856 14.3143,-27.6867 -36.1183,-27.5243 -28.6032,0 -80.2508,6.9226 -114.7722,15.1781 l -62.7659,15.0082 90.6619,11.1019 c 49.8642,6.1067 94.362,11.7371 98.8844,12.5124 4.5237,0.7754 15.3717,-11.0466 24.1101,-26.2763 z m 1027.7161,16.6143 c 23.0142,-4.6521 32.429,-9.5994 20.9219,-10.995 -34.8565,-4.2237 -89.4164,1.5137 -111.584,11.7444 -26.3794,12.169 28.99,11.7112 90.6621,-0.7384 z m 216.194,0 c 0,-6.0919 -9.4148,-11.0762 -20.922,-11.0762 -11.507,0 -20.922,4.9843 -20.922,11.0762 0,6.0918 9.415,11.076 20.922,11.076 11.5072,0 20.922,-4.9842 20.922,-11.076 z m -53.3613,-35.7318 c -7.6049,-6.0364 -33.5328,-7.3434 -58.7011,-2.9536 -55.6759,9.7101 -30.2422,25.7262 29.751,18.7335 27.7008,-3.2121 37.8136,-8.7391 28.9501,-15.7761 z m -222.8947,4.4933 c 19.2288,-6.1288 10.5242,-16.293 -46.7622,-54.6018 -76.8037,-51.3675 -132.7357,-59.6414 -213.9801,-31.6667 l -41.8439,14.4064 42.2889,7.5945 c 23.2588,4.1757 70.3333,22.3665 104.61,40.4243 60.7075,31.9843 107.6043,39.1653 155.6873,23.8433 z M 1386.085,4542.3649 c 22.4507,-9.5402 14.5515,-14.8678 -55.7921,-37.6219 -102.9971,-33.3171 -208.088,-36.0566 -218.0901,-5.6858 -3.7892,11.5118 -2.0363,27.1624 3.8963,34.7865 23.9569,30.7806 204.2163,36.4701 269.9877,8.5212 z m 116.8127,11.5045 c -25.683,-7.4505 -51.0311,-7.4505 -76.7141,0 -33.7634,9.7913 -29.1699,11.1241 38.357,11.1241 67.5271,0 72.1205,-1.3291 38.3571,-11.1241 z m 156.915,-22.3 c -42.1927,-4.6446 -98.6822,-10.8731 -125.532,-13.8452 -67.8682,-7.5096 -24.528,11.2054 71.8861,31.0391 55.1566,11.3494 81.8302,12.2059 102.464,3.2859 23.9394,-10.334 17.0147,-13.2434 -48.8181,-20.4872 z m 208.0578,16.9908 c 3.1941,-2.1783 -16.8321,-3.9689 -44.5077,-3.9689 -27.6756,0 -53.9689,4.6889 -58.429,10.419 -7.3836,9.4848 88.3935,3.4704 102.9367,-6.4501 z m -788.3622,-34.1662 c -1.4367,-40.6126 -2.4595,-41.3436 -62.7661,-45.0984 -41.65751,-2.5845 -68.56462,-11.2239 -83.96048,-26.9409 l -22.65703,-23.1307 -51.21946,25.1391 c -28.17078,13.8268 -48.89476,30.8176 -46.05304,37.7623 8.05867,19.6898 72.02422,40.4686 174.37187,56.6435 51.56064,8.1484 93.74644,15.2851 93.74644,15.861 0,0.5907 -0.6602,-17.5298 -1.4646,-40.2359 z m 2098.3584,19.5716 c 13.7532,-5.8593 7.0703,-15.6765 -25.4793,-37.4264 -35.1321,-23.474 -58.5881,-29.481 -115.117,-29.481 -39.047,0 -68.3792,2.0675 -65.1827,4.5929 3.194,2.5475 34.0564,22.3775 68.5776,44.1126 61.2763,38.5783 82.7113,41.4212 137.2014,18.2019 z m 258.5514,-25.154 c 18.2534,-22.9793 -17.4252,-57.4003 -76.4285,-73.7339 -38.3714,-10.6221 -39.7616,-9.976 -25.1557,11.6964 12.4952,18.5415 9.857,28.9567 -13.755,54.3174 -27.1266,29.1377 -27.5046,32.1393 -5.2882,42.0156 28.8677,12.8261 99.0434,-7.122 120.6274,-34.2955 z M 606.73827,4522.45 c -4.74092,-6.0919 -16.09556,-11.0022 -25.23193,-10.91 -9.98169,0 -8.26143,4.4564 4.30991,10.91 26.79551,13.7492 31.62432,13.7492 20.92202,0 z m -56.93252,-28.8755 c 12.13434,-3.6994 22.0625,-13.668 22.0625,-22.1523 0,-16.4629 -23.44195,-17.6923 -90.66204,-4.7554 l -41.84401,8.0524 34.87001,12.0841 c 42.61349,14.7719 47.78913,15.237 75.57354,6.7712 z M 3296.25,4484.7653 c 10.7302,-22.204 2.8082,-25.0063 -55.4457,-19.6048 -47.7096,4.423 -49.7255,5.9922 -25.6565,19.9666 33.6952,19.5678 71.5538,19.398 81.1022,-0.3692 z m 204.6996,-27.0923 c 0,-13.177 -19.9294,-27.6055 -55.9343,-40.4981 -71.9508,-25.7668 -85.8184,-15.2556 -21.5134,16.3041 27.2534,13.3763 49.5515,28.8977 49.5515,34.4911 0,5.5972 6.2768,10.1753 13.9482,10.1753 7.6713,0 13.948,-9.2116 13.948,-20.4724 z M 750.20784,4437.7987 c 48.2231,-9.8615 84.96482,-20.0848 81.64849,-22.7172 -10.86695,-8.6284 -207.58588,28.0706 -223.51913,41.7017 -11.91675,10.1938 -7.40504,11.6226 19.32311,6.1214 19.1785,-3.9468 74.32517,-15.2444 122.54753,-25.1059 z m -226.7996,-3.9395 c 45.83174,-7.5132 105.29814,-22.3775 132.14807,-33.0327 50.7298,-20.1291 105.63841,-34.9342 204.55267,-55.1482 l 58.09844,-11.8736 4.6675,-70.3041 4.6675,-70.304 -69.47695,48.3105 c -85.3529,59.3497 -151.16895,84.4077 -284.52251,108.3285 -105.03223,18.8442 -174.08183,41.4322 -190.28894,62.259 -11.60336,14.9085 20.76439,46.4128 41.2661,40.1621 8.5571,-2.6213 53.05682,-10.8841 98.88812,-18.3975 z m 913.23646,-33.3281 c 0,-6.3208 -40.0285,-10.4411 -94.1492,-9.688 -68.1368,0.96 -82.5878,3.3968 -52.305,8.9016 67.533,12.2466 146.4542,12.6711 146.4542,0.7753 z m 203.5725,3.692 c 22.4028,-6.8265 22.5181,-8.0339 1.3297,-13.9375 -12.7592,-3.5442 -53.0982,-4.279 -89.6421,-1.6244 -60.9792,4.4526 -63.0021,5.4901 -24.5995,12.6268 58.5472,10.8805 84.5849,11.5524 112.9106,2.9167 z m 814.6319,-1.1075 c 0,-4.7296 -26.6757,-6.9596 -59.2791,-4.951 -97.7062,6.0106 -106.048,10.9025 -20.922,12.2649 44.1106,0.7015 80.2011,-2.5844 80.2011,-7.3139 z m 338.4312,0.8122 c -17.1551,-2.6214 -48.5382,-2.6952 -69.7401,0 -21.2018,2.5475 -7.1661,4.6963 31.191,4.7812 38.3571,0 55.7041,-1.9937 38.5491,-4.6298 z m 139.5535,0.5169 c -9.4433,-3.0275 -28.2731,-3.2121 -41.8441,-0.4062 -13.5709,2.8061 -5.8446,5.2907 17.1695,5.516 23.0142,0.3692 34.1179,-2.0675 24.6746,-5.1061 z M 910.22922,4382.525 c 21.16328,-3.2121 35.41586,-9.7803 31.67266,-14.591 -6.66157,-8.5582 -174.6514,17.5114 -188.6082,29.2706 -6.66666,5.6156 71.45421,-1.6983 156.93554,-14.6796 z m 2567.28808,-26.328 c -12.5448,-9.1342 -219.0414,-22.5843 -207.6304,-13.5203 3.8775,3.0644 40.0098,11.4933 80.2949,18.6965 73.9482,13.2249 148.4468,10.1974 127.3355,-5.1762 z m -2431.4168,0 c 17.3248,-8.8905 16.1257,-10.7365 -6.974,-10.7365 -15.3429,0 -37.311,4.8329 -48.81806,10.7365 -17.32485,8.8904 -16.12571,10.7365 6.97398,10.7365 15.34288,0 37.31098,-4.8293 48.81808,-10.7365 z m 137.134,-0.3692 c 21.6864,-0.3693 21.6901,-1.0707 0.047,-11.0947 -25.7698,-11.9437 -67.4497,-3.3966 -67.4497,13.8009 0,6.092 9.9282,8.0524 22.063,4.353 12.1343,-3.6958 32.5332,-6.8746 45.331,-7.0592 z m 532.3702,-6.2286 c 0,-2.3997 -12.9238,-4.3528 -28.7188,-4.3528 -15.7957,0 -25.0098,4.7664 -20.4753,10.5925 7.4427,9.5624 49.1941,4.2679 49.1941,-6.2397 z m 212.7071,-1.1075 c -17.2606,-2.6583 -45.5053,-2.6583 -62.7659,0 -17.2607,2.6582 -3.1383,4.7997 31.3829,4.7997 34.5214,0 48.6437,-2.1415 31.383,-4.7997 z m -540.4852,-27.9046 c 9.7078,-8.2406 6.1808,-9.6621 -11.6014,-4.6741 -14.0527,3.9431 -51.7124,7.2438 -83.6881,7.3361 -43.5978,0 -52.9057,2.9537 -37.2166,11.3125 24.0822,12.8225 111.8492,3.5812 132.5061,-13.9745 z m 770.79,17.0352 c -13.3357,-2.7691 -38.442,-2.8799 -55.7919,-0.3692 -17.35,2.6583 -6.4394,4.9178 24.2462,5.0396 30.6857,0 44.8814,-2.0306 31.5457,-4.8144 z m 250.6108,0.923 c -4.6352,-3.6921 -16.665,-4.0724 -26.7336,-0.8861 -11.1268,3.5443 -7.8216,6.162 8.4269,6.6937 14.7035,0.4799 22.9417,-2.1414 18.3067,-5.8187 z m -1357.1433,-21.58 c 35.9455,-5.3572 49.8083,-13.1659 49.8083,-28.056 0,-22.5251 50.9089,-47.3505 122.0451,-59.5158 24.9322,-4.2643 45.331,-8.9754 45.331,-10.4707 0,-1.5137 -16.8994,-39.7264 -37.554,-84.9614 -35.2182,-77.127 -37.6043,-94.2692 -38.3571,-275.5932 -0.7391,-177.9015 -2.0921,-188.0768 -16.9161,-127.3758 -26.6685,109.1925 -81.1932,230.624 -147.3569,328.1828 -48.49534,71.5076 -64.28409,107.7931 -70.26682,161.494 -8.94352,80.2762 -0.41852,117.0786 25.35976,109.2293 9.95375,-3.0275 40.51196,-8.8536 67.90676,-12.9332 z m 715.535,-0.5908 c -4.6353,-3.6921 -16.665,-4.076 -26.7336,-0.8861 -11.1268,3.5444 -7.8215,6.1583 8.4269,6.69 14.7035,0.48 22.9417,-2.1413 18.3067,-5.8149 z m 1258.9871,-14.639 c 8.3693,-0.9968 -121.0342,-56.2041 -131.7557,-56.2041 -4.1889,0 -7.6133,6.3208 -7.6133,14.0483 0,19.9113 71.3493,52.0431 104.6101,47.1142 15.3429,-2.289 30.9846,-4.5043 34.7589,-4.9584 z m -1816.9357,-22.9756 c 25.2868,-15.7946 29.1086,-22.1523 13.3177,-22.1523 -30.3473,0 -93.1998,23.607 -93.1998,35.008 0,16.773 43.7118,9.7397 79.8821,-12.8557 z m 134.4923,10.7402 c -9.5176,-7.5577 -25.774,-7.7977 -48.1206,-0.7015 -31.7102,10.0645 -30.8423,10.7549 14.373,11.4121 33.0293,0.4799 43.6131,-2.8798 33.7476,-10.7106 z m 1455.6088,4.7221 c -4.6353,-3.692 -16.665,-4.076 -26.7337,-0.8861 -11.1267,3.5444 -7.8214,6.1584 8.4269,6.69 14.7036,0.4799 22.9418,-2.1414 18.3068,-5.8187 z m -1321.1723,-26.7009 c 21.9119,-32.5122 -13.9006,-39.5529 -68.0895,-13.3837 -48.7869,23.5627 -44.02,35.6984 14.0211,35.6984 24.8488,0 44.4925,-8.1077 54.0684,-22.3147 z m 1227.9769,5.0655 c 15.1782,-14.5208 12.2091,-21.868 -18.7913,-46.4866 -41.7054,-33.1178 -47.8686,-31.4267 -59.9225,16.4333 -8.432,33.4795 -3.4544,37.8879 51.9342,46.0177 4.8143,0.7015 16.8654,-6.4759 26.7796,-15.9644 z m -935.1794,-3.788 c -34.8017,-15.503 -125.5321,-25.2426 -125.5321,-13.476 0,13.1879 33.095,20.5905 97.6361,21.8458 33.2459,0.6277 42.1444,-2.0306 27.896,-8.3698 z m 1073.783,-3.8546 c -0.093,-7.613 -5.5206,-20.4946 -12.0069,-28.6171 -9.3991,-11.7776 -13.6123,-11.0097 -20.7537,3.766 -4.9283,10.2011 -5.4314,23.079 -1.1204,28.6208 11.5127,14.7903 34.126,12.276 33.8783,-3.7697 z M 2573.0156,4248.33 c -5.6926,-10.659 -17.7097,-35.3846 -26.7043,-54.9451 l -16.3546,-35.5618 -24.2378,32.5823 c -30.7944,41.399 -11.3891,77.3079 41.7752,77.3079 28.8077,0 33.8337,-3.8176 25.5215,-19.3833 z m 413.2921,-6.9336 c -8.7612,-8.3847 -34.2086,-41.7867 -56.5494,-74.2287 l -40.6209,-58.9842 7.4562,49.3036 c 5.3021,35.0671 18.1217,56.4921 44.3811,74.1733 40.6756,27.395 70.4747,33.7934 45.333,9.736 z m -963.8468,-6.9116 c -11.5071,-5.9036 -27.1987,-10.7365 -34.87,-10.7365 -7.6714,0 -4.5331,4.8329 6.9739,10.7365 11.5072,5.9073 27.1986,10.7365 34.87,10.7365 7.6715,0 4.5332,-4.8292 -6.9739,-10.7365 z m 157.6218,-19.3832 c -16.2504,-84.0902 -12.6894,-80.9667 -70.5254,-61.9305 -28.7245,9.4517 -54.6459,18.9993 -57.6028,21.2145 -12.9308,9.6879 42.5107,58.9362 71.2858,63.3224 60.5525,9.2301 62.82,8.3292 56.8424,-22.6064 z m 126.1825,-5.5381 c -23.3597,-19.7968 -53.5009,-48.4582 -66.9802,-63.6879 l -24.508,-27.6904 7.198,47.5094 c 9.1058,60.0954 29.8729,79.8664 83.8903,79.8664 l 42.872,0 -42.4721,-35.9975 z m 127.4114,14.1664 c 4.6027,-5.9147 -7.1407,-52.0173 -26.0969,-102.4544 -18.9563,-50.4334 -37.3156,-101.6681 -40.7983,-113.8518 -5.1255,-17.9286 -6.6207,-16.8727 -7.8448,5.538 -1.4507,26.5496 18.6712,144.4959 33.5403,196.6018 7.4119,25.9736 26.8172,32.6488 41.1997,14.1664 z m 335.1384,-34.0407 c 7.7666,-28.0781 1.4459,-40.3283 -39.2702,-76.119 l -48.5264,-42.6543 -15.4489,26.9261 c -24.1607,42.1079 -18.7782,60.8672 28.606,99.6891 49.886,40.871 61.5042,39.6489 74.6395,-7.8419 z m -1411.4434,23.415 34.1266,-10.3009 -36.7055,-58.8623 c -34.7993,-55.8054 -37.1924,-70.6585 -46.0731,-285.9826 -5.2529,-127.3684 -17.9047,-255.9773 -28.8059,-292.8166 l -19.4389,-65.689 -16.0863,109.9936 c -28.0033,191.492 -31.1054,251.5468 -17.9817,348.1346 7.0359,51.781 15.8348,104.1158 19.5537,116.2996 10.0486,32.922 66.3683,149.5281 72.2204,149.5281 2.785,0 20.4209,-4.6373 39.1907,-10.3045 z m 155.9871,-11.8478 c -4.7409,-6.0919 -14.5264,-11.0762 -21.7449,-11.0762 -7.2191,0 -13.1252,4.9843 -13.1252,11.0762 0,6.0918 9.7855,11.0761 21.7455,11.0761 11.96,0 17.866,-4.9843 13.1246,-11.0761 z m 508.8222,-5.804 c -9.7036,-9.2854 -20.5156,-14.602 -24.0262,-11.8145 -9.6731,7.6831 9.9806,28.6946 26.8373,28.6946 9.2489,0 8.1908,-6.354 -2.8129,-16.8801 z m 557.93,-61.0517 c -24.9138,-36.9685 -31.2694,-17.8289 -11.7153,35.2775 15.8747,43.1158 18.2659,45.0431 22.6985,18.2794 2.7246,-16.4481 -2.2176,-40.5535 -10.9832,-53.5569 z m -920.2982,50.2414 c 0,-18.3494 -62.685,-23.5626 -76.0975,-6.3282 -6.8861,8.8462 4.7968,12.6638 65.6365,21.4361 5.7536,0.8492 10.461,-5.9701 10.461,-15.1079 z m -221.5552,-39.852 c -8.5584,-19.4977 -15.5609,-58.6555 -15.5609,-87.0179 0,-28.366 -15.6821,-86.1873 -34.8495,-128.4908 l -34.85,-76.9239 4.468,121.8378 c 4.3658,119.076 15.4329,154.0175 62.2899,196.6718 29.4727,26.8264 37.0441,16.1564 18.5034,-26.077 z m 305.2433,40.5055 c 0,-2.6952 -6.2767,-7.9637 -13.948,-11.7296 -7.6714,-3.7659 -13.9481,-1.5507 -13.9481,4.8846 0,6.45 6.2767,11.7296 13.9481,11.7296 7.6713,0 13.948,-2.2153 13.948,-4.8846 z m 76.714,-6.1915 c -4.7409,-6.0919 -16.0956,-10.9987 -25.232,-10.9063 -9.9816,0 -8.2609,4.4562 4.31,10.9063 26.7956,13.7529 31.6244,13.7529 20.922,0 z m 112.4814,-101.0663 c -11.8424,-20.561 -18.9167,-27.4172 -15.7203,-15.2333 3.194,12.1837 10.8306,44.5815 16.9654,71.995 10.1866,45.5229 11.5494,46.8447 15.7198,15.2333 2.5107,-19.0361 -5.1227,-51.4339 -16.9649,-71.995 z m 561.7583,72.8553 c 25.4393,-44.3378 19.2519,-90.5439 -21.5855,-161.1913 -26.929,-46.59 -45.4481,-65.3493 -64.5095,-65.3493 -22.627,0 -25.4179,5.5344 -18.1557,35.9975 16.1615,67.7935 71.0734,218.7541 79.5721,218.7541 4.67,0 15.7756,-12.6933 24.6786,-28.211 z m -608.2823,-65.9954 c -26.3325,-90.5402 -26.6207,-90.9906 -47.7756,-74.1881 -11.9954,9.5255 -12.2171,19.435 -0.8509,38.0282 8.4538,13.8267 19.5021,40.0698 24.5513,58.3085 8.5501,30.8914 33.8308,65.4711 42.7088,58.4193 2.1433,-1.6983 -6.239,-37.9579 -18.6317,-80.5679 z m 441.3065,-37.3968 c -10.4517,-72.9881 -21.6021,-111.3117 -31.5695,-108.502 -21.7621,6.1325 -13.5997,111.2821 13.7062,176.565 12.3989,29.6471 25.1265,51.8475 28.283,49.3405 3.1568,-2.5105 -1.5343,-55.3364 -10.4197,-117.4035 z m -206.4426,75.8237 c 18.5286,-7.8752 26.9568,-23.2304 26.9568,-49.1117 0,-47.1659 -23.327,-97.533 -42.787,-92.3825 -12.3104,3.249 -80.272,141.0289 -82.1527,166.541 -0.6091,8.2554 50.1668,-4.7258 97.9829,-25.0468 z m 724.3572,-27.2917 c 0,-33.5054 -6.2767,-60.9188 -13.948,-60.9188 -7.6715,0 -13.9481,27.4134 -13.9481,60.9188 0,33.5054 6.2766,60.9188 13.9481,60.9188 7.6713,0 13.948,-27.4134 13.948,-60.9188 z m -1269.482,3.4336 c 0.093,-10.3008 -6.0633,-21.8089 -13.7347,-25.5748 -8.378,-4.1129 -13.8624,10.0018 -13.734,35.3439 0.1394,31.3197 3.6962,37.9064 13.734,25.5749 7.4368,-9.1378 13.6171,-25.0431 13.7347,-35.344 z m 132.9301,35.0745 c 4.8566,-6.2396 4.7149,-26.2283 -0.3255,-44.4154 l -9.1467,-33.0696 -25.4383,24.9471 c -18.3328,17.9803 -21.7737,30.3856 -12.3188,44.4154 14.7127,21.8311 33.9717,25.1429 47.2195,8.1225 z m 92.2805,-3.5075 c -8.5441,-8.1742 -11.4049,-18.1427 -6.3576,-22.1522 5.0479,-4.0096 1.8551,-7.2882 -7.0948,-7.2882 -8.95,0 -16.2727,2.1045 -16.2727,4.6299 0,2.5475 -3.8077,12.5197 -8.466,22.1523 -6.1604,12.7486 0.01,17.5225 22.6297,17.5225 24.4323,0 27.7673,-3.1752 15.5614,-14.8643 z m 464.4751,-28.0374 c -10.2374,-23.5958 -20.4873,-65.9585 -22.7776,-94.1399 -5.8656,-72.1648 -25.0864,-63.95 -25.0864,10.7254 0,44.9027 7.9467,70.8394 28.8458,94.1473 38.0618,42.4475 41.2982,40.62 19.0182,-10.7328 z m -791.8186,-4.172 c -3.8682,-7.6167 -7.0354,-1.366 -7.0354,13.8452 0,15.2297 3.1662,21.4582 7.0354,13.8452 3.8682,-7.6167 3.8682,-20.0774 0,-27.6904 z m 551.4595,-40.9079 c 24.3147,-60.3798 20.4719,-71.8178 -18.5588,-55.2294 -19.4769,8.2776 -26.0622,23.57 -26.0622,60.5274 0,27.1994 5.079,49.4551 11.2858,49.4551 6.2073,0 21.2079,-24.6408 33.3352,-54.7531 z m 567.351,-31.0871 -1.7388,-74.764 -11.6968,60.9188 c -11.1393,58.0132 -8.4581,88.6092 7.7652,88.6092 4.0775,0 6.6291,-33.6457 5.6718,-74.764 z m 122.3701,-10.5777 c -26.6952,-42.0968 -59.7766,-83.7283 -73.514,-92.5154 -21.3632,-13.6643 -20.7839,-10.3673 4.0078,22.791 15.9406,21.3216 32.7908,51.6629 37.4452,67.4242 8.9904,30.4484 63.7541,92.2127 74.3206,83.8207 3.4544,-2.7322 -15.5627,-39.4274 -42.2577,-81.5205 z m -1040.7385,24.4229 c 18.9279,-20.4909 18.6318,-21.0115 -3.9472,-6.9522 -13.4249,8.3625 -24.4091,20.406 -24.4091,26.7675 0,6.3614 1.7761,9.4885 3.9474,6.9521 2.1712,-2.5475 13.1548,-14.5836 24.4089,-26.7674 z m 87.1769,-16.8985 c -9.6747,-29.3777 -31.8446,-16.2155 -31.8446,18.907 0,23.0494 3.6682,25.9772 19.482,15.5546 10.7154,-7.0629 16.2783,-22.5695 12.3626,-34.4616 z m 1043.2003,-16.33 c 9.7576,-15.9423 6.1692,-38.7259 -12.7986,-81.2694 -20.8925,-46.8595 -39.0369,-65.7961 -87.5048,-91.3303 -33.6309,-17.7181 -65.5561,-32.2352 -70.9452,-32.2611 -22.7407,0 3.3615,64.9136 46.7203,116.3882 25.7215,30.5333 59.319,76.4809 74.6618,102.1 18.2611,30.4927 29.349,40.0107 32.1022,27.5538 2.3154,-10.467 10.3071,-28.9974 17.7643,-41.1812 z M 1092.4246,3868.9939 c 51.1092,-125.4263 63.0263,-169.5685 107.6438,-398.7415 20.6886,-106.2646 26.4057,-171.3481 19.761,-224.9493 -5.1422,-41.4802 -11.621,-73.6157 -14.3967,-71.4116 -2.7756,2.2152 -14.5385,51.0943 -26.139,108.6497 -27.8984,138.4039 -88.3629,384.1246 -104.79,425.8485 -7.1953,18.2756 -26.3678,93.0397 -42.6046,166.1423 -16.2375,73.1026 -32.55004,145.3745 -36.25043,160.6042 -14.46219,59.5269 49.71353,-50.6513 96.77593,-166.1423 z m 413.7699,151.6436 c -0.3254,-38.5302 -15.8063,-74.4133 -29.2912,-67.7934 -14.1001,6.9189 -16.5349,60.7712 -3.9287,86.8592 11.4182,23.6291 33.4538,10.9802 33.2181,-19.0658 z m 69.9302,-201.5084 c -7.9401,-264.8271 -27.896,-256.2874 -27.896,11.9401 0,105.408 6.1473,180.4859 16.2136,198.0305 8.9179,15.5435 16.7636,26.9926 17.435,25.4456 0.6743,-1.5506 -1.9155,-107.4867 -5.7526,-235.4162 z m 1073.9964,221.523 c 0,-9.1378 -6.2765,-16.6142 -13.948,-16.6142 -7.6714,0 -13.9479,7.4764 -13.9479,16.6142 0,9.1378 6.2765,16.6143 13.9479,16.6143 7.6715,0 13.948,-7.4765 13.948,-16.6143 z m -973.5465,-87.0843 c -4.2355,-13.0219 -19.134,-38.63 -33.103,-56.9057 l -25.3982,-33.2284 0.4649,88.6092 0.4649,88.6092 32.6533,-31.7036 c 21.0976,-20.4835 29.9268,-40.0809 24.9487,-55.3807 z m 271.7266,57.3153 c -4.454,-8.835 -7.7578,-6.21 -8.4269,6.6937 -0.6045,11.6743 2.692,18.2166 7.3254,14.5356 4.6355,-3.692 5.1306,-13.2323 1.1019,-21.2293 z m 593.5254,-78.2235 c -14.4878,-24.3859 -23.6289,-1.8829 -17.9963,44.3046 l 6.4162,52.6118 8.2576,-44.3046 c 4.5425,-24.3675 6.0367,-48.0447 3.3243,-52.6118 z M 1952.7209,3885.49 c 0,-91.4669 -0.8183,-93.8335 -27.8961,-80.4054 -26.9689,13.3762 -34.8676,39.0914 -29.8306,97.1157 4.5656,52.5969 16.4885,77.533 37.0706,77.533 16.6247,0 20.6561,-18.3938 20.6561,-94.2433 z m 82.7413,83.5696 c 36.7684,-15.6285 46.4558,-86.2685 21.1206,-154.014 -19.2296,-51.4228 -24.0784,-55.9567 -48.6619,-45.5082 -23.9895,10.1938 -27.304,23.6587 -27.304,110.8982 0,101.428 5.1468,109.7462 54.8453,88.624 z m -203.1163,-25.3238 c 4.6261,-13.7086 8.2325,-34.8898 8.0159,-47.0737 -0.279,-16.5957 -7.0968,-12.4311 -27.1209,16.6143 -32.3362,46.9038 -33.653,55.3807 -8.6009,55.3807 10.6126,0 23.0803,-11.2164 27.7059,-24.9213 z m -402.9337,-121.9484 c -25.4463,-85.9067 -27.4624,-152.7734 -34.3103,-1137.964 -6.1543,-885.4609 -9.4238,-1013.4274 -21.2234,-830.7115 -7.6713,118.7918 -13.948,597.2816 -13.948,1063.3107 l 0,847.3257 34.4875,85.5891 c 47.0517,116.7722 71.9404,97.1785 34.9942,-27.55 z m 305.9825,65.5117 c -5.3561,-19.2171 -9.2076,-158.8578 -8.5576,-310.3131 0.6509,-151.4554 -2.0179,-272.8316 -5.9317,-269.7229 -3.9101,3.1014 -16.5795,37.3045 -28.1494,76.0009 -20.9276,69.9865 -20.0154,174.6709 3.845,441.4031 9.0806,101.5093 13.4952,114.7711 34.7311,104.3485 7.8806,-3.8656 9.6232,-21.761 4.0634,-41.7165 z m 518.2209,-65.401 c 8.6487,-85.5485 7.1185,-96.9163 -13.0422,-96.9163 -19.5855,0 -22.8404,15.311 -22.8404,107.4387 0,132.5483 22.0727,126.0762 35.8826,-10.5224 z m -119.3456,-69.226 c -10.8362,-35.5692 -26.2334,95.65 -16.2458,138.452 7.6055,32.5898 10.158,26.4129 16.0207,-38.7666 3.8357,-42.6432 3.938,-87.5015 0.2324,-99.6854 z m 861.7617,158.389 c 38.358,-30.4594 14.9895,-213.2639 -66.2642,-518.3639 -78.6077,-295.1647 -129.5077,-492.1947 -147.3616,-570.4219 -14.6324,-64.1125 -17.9264,-69.8647 -19.032,-33.2284 -3.6869,122.1847 43.5684,940.6201 58.1962,1007.9298 16.5883,76.3332 17.8129,77.9172 79.0838,102.4545 72.3677,28.9789 73.3758,29.1008 95.3778,11.6299 z m -1493.7301,-55.8053 c -3.3382,-13.7787 -6.1925,-5.1135 -6.3473,19.2541 -0.1395,24.3675 2.5758,35.6393 6.066,25.0505 3.4917,-10.5888 3.6172,-30.5258 0.279,-44.3046 z m 808.1921,-42.5583 2.0968,-93.2538 -12.0091,66.4569 c -6.6054,36.5513 -15.3392,80.5643 -19.4092,97.8061 -5.1799,21.9456 -2.2038,29.9832 9.911,26.797 11.7238,-3.0645 17.9873,-34.6426 19.4087,-97.8062 z m 102.5114,76.3849 c 0,-20.2989 -44.8168,-146.4194 -55.4727,-156.1073 -8.9378,-8.1299 9.2867,125.6183 21.1717,155.3799 7.0261,17.5927 34.301,18.1686 34.301,0.7385 z m 112.3196,-24.1128 c -14.6911,-30.6847 -32.4919,-41.2661 -21.2196,-12.6121 3.594,9.1378 9.8221,24.8032 13.8383,34.8124 4.0169,10.0091 10.4688,15.6875 14.3385,12.6121 3.8683,-3.0645 0.7392,-18.7372 -6.9572,-34.8124 z m 64.2942,1.2184 c -3.8683,-7.6167 -7.0355,-1.3661 -7.0355,13.8451 0,15.2297 3.1663,21.4583 7.0355,13.8453 3.8683,-7.6167 3.8683,-20.0774 0,-27.6904 z m -120.9055,-42.2334 c -4.9218,-40.8784 -16.0375,-71.1495 -28.4098,-77.3632 -22.8877,-11.4971 -41.2465,-13.524 -41.2465,-4.5561 0,18.0579 59.742,149.074 67.9765,149.074 5.3709,0 6.1264,-30.2194 1.6784,-67.1547 z m -655.3481,-45.1058 c -9.2516,-32.6821 -24.9296,-101.7861 -34.8406,-153.5671 l -18.0194,-94.1474 -1.5297,123.0598 c -0.8415,67.6826 2.5292,146.5633 7.4868,175.2912 8.9556,51.8844 9.1954,52.0838 36.3691,30.5074 25.0362,-19.8817 25.9288,-26.7563 10.533,-81.1439 z m -162.5908,-72.0246 c -10.2096,-137.7061 -10.9548,-140.2425 -22.3173,-76.0045 -10.9242,61.757 -5.807,142.2215 12.8887,202.6567 16.4667,53.2283 19.6221,10.8435 9.4286,-126.6522 z m 937.8136,76.348 c -15.0006,-11.9105 -22.9644,4.7702 -12.4341,26.0511 9.878,19.9592 10.6241,19.9925 15.5092,0.7015 2.8221,-11.1389 1.4413,-23.1861 -3.0732,-26.7674 z m 159.1691,31.8477 c 0,-5.2982 -11.7581,-38.9438 -26.1293,-74.7641 -25.4626,-63.4701 -59.2752,-234.8846 -83.8558,-425.1065 -9.8519,-76.2408 -12.2511,-41.9195 -12.615,180.4491 l -0.4649,274.5999 51.0635,26.5754 c 55.5596,28.9162 71.9858,33.0771 71.9858,18.2462 z M 1479.3191,2728.7889 c -1.8598,-889.4003 -5.6076,-1082.1401 -21.7175,-1116.5464 -16.8535,-35.9975 -19.1024,106.5859 -16.727,1060.49 2.4363,978.5153 7.7657,1157.1626 33.9015,1136.4059 3.7336,-2.9536 5.7787,-489.1229 4.5424,-1080.3495 z m 1305.8625,1060.5564 c -4.4541,-8.835 -7.7579,-6.21 -8.4269,6.6937 -0.6044,11.6742 2.6919,18.2166 7.3255,14.5356 4.6353,-3.6921 5.1305,-13.2323 1.1019,-21.2293 z m -931.1159,-404.9847 -1.0182,-395.9725 -27.7552,60.9188 c -25.5736,56.1302 -27.2907,82.2478 -21.8407,332.2846 3.7475,172.0422 12.7829,294.6737 24.6797,335.0536 10.3209,35.0265 20.6077,63.6879 22.8597,63.6879 2.2504,0 3.6359,-178.1895 3.0732,-395.9724 z m 96.6509,275.7186 -2.0039,-106.8073 -9.8436,88.6092 c -5.4138,48.7351 -14.3371,99.7924 -19.8294,113.4604 -7.9318,19.7377 -5.4938,23.4815 11.8479,18.1981 17.9269,-5.4642 21.4752,-25.7668 19.8294,-113.4604 z m 818.6056,34.4136 c -4.4122,-41.122 -14.2349,-231.7685 -21.8314,-423.6629 -30.3978,-767.8911 -27.5404,-726.5697 -77.3552,-1118.6914 -42.222,-332.3584 -44.284,-330.121 -45.8898,49.8427 -2.2131,523.0455 23.9083,974.0554 75.9557,1311.5605 17.8934,116.0338 56.7638,255.7152 71.1604,255.7152 3.2872,0 2.3711,-33.6457 -2.041,-74.7641 z m -176.9472,-581.498 c -1.0741,-354.8541 -6.1822,-749.8556 -11.3495,-877.7851 -6.0651,-150.1558 -10.3164,78.5373 -11.9934,645.1859 -1.7155,579.1794 2.148,877.7851 11.349,877.7851 9.1616,0 13.2776,-221.4123 11.9939,-645.1859 z m -569.7959,611.2966 c -3.7707,-8.7761 -9.2844,-287.5961 -12.2525,-619.6037 -2.9663,-332.0077 -10.2918,-591.1897 -16.2755,-575.9599 -5.9837,15.2296 -11.2458,295.9252 -11.6935,623.7719 -0.7625,557.736 0.7252,595.8159 23.1319,591.917 13.6578,-2.3628 21,-11.0244 17.0896,-20.1253 z m 500.949,-832.8197 c -0.9065,-730.0587 -3.8217,-849.9433 -19.8609,-816.8662 -15.1095,31.1535 -19.008,196.502 -19.8606,842.3414 -1.0229,774.6403 1.4225,830.1577 36.5981,830.1577 2.3014,0 3.7055,-385.0367 3.1244,-855.6329 z m -445.6992,138.4519 c -0.279,-481.5985 -4.8287,-689.0215 -14.7681,-675.468 -9.4219,12.852 -13.9331,242.5493 -13.1466,669.3761 1.0787,584.8431 4.8717,701.1206 22.8771,701.1206 3.0035,0 5.2709,-312.7648 5.0376,-695.0287 z m 333.9083,651.7283 c -36.7717,-39.4939 -40.6892,-39.3462 -30.885,1.1814 3.9751,16.4334 17.5428,31.7148 30.1512,33.9595 34.9143,6.2211 35.0092,1.6984 0.7347,-35.1372 z m -276.6275,-889.4446 c -3.2964,-495.9754 -10.2509,-837.8482 -15.726,-772.9826 -5.3988,63.9648 -10.5856,433.2917 -11.5257,820.7319 -1.5994,658.924 5.5248,904.0651 24.9911,860.0226 4.496,-10.1679 5.5109,-418.6638 2.2596,-907.7719 z m -227.1048,672.4554 c 0.2325,-97.4702 -4.4587,-202.1399 -10.434,-232.5992 -6.8457,-34.901 -10.9418,42.9237 -11.0761,210.4468 -0.093,146.2053 4.5796,250.8749 10.434,232.5993 5.8564,-18.2757 10.8403,-112.9768 11.0761,-210.4469 z m 350.511,113.5305 c -0.6462,-75.9529 -8.4021,-139.7478 -19.8609,-163.3733 -17.1821,-35.4325 -18.8908,-24.7108 -19.8606,124.6068 -0.8973,138.2082 2.162,163.3732 19.8606,163.3732 17.4206,0 20.7444,-20.8564 19.8609,-124.6067 z m 53.0138,22.348 c -3.1059,-19.9075 -5.7081,-6.2876 -5.7867,30.2637 -0.093,36.5514 2.4596,52.837 5.6443,36.1932 3.1849,-16.6437 3.2453,-46.5493 0.1395,-66.4569 z m 136.3454,-570.6065 c 0,-339.6207 -4.561,-582.6019 -10.1299,-539.9587 -5.5714,42.6432 -16.945,123.3329 -25.2753,179.3155 -8.3297,55.9788 -14.8044,272.2334 -14.3878,480.5648 0.6463,323.6968 4.1845,387.4216 24.3356,438.1799 12.9678,32.6673 24.0007,59.3941 24.5177,59.3941 0.5162,0 0.9393,-277.8749 0.9393,-617.4956 z m -43.0854,593.7483 c -5.4239,-6.9669 -18.4756,-33.1362 -29.0035,-58.1499 l -19.1414,-45.4749 6.583,42.5214 c 3.6219,23.3891 13.9323,49.5546 22.9144,58.1497 19.5908,18.7446 32.5327,20.7974 18.6475,2.9537 z m -830.6256,-901.1078 c 0,-432.5238 -5.3943,-796.3754 -11.9875,-808.5592 -6.8257,-12.6157 -11.9874,335.5336 -11.9874,808.5592 0,473.0219 5.1617,821.1712 11.9874,808.5591 6.5932,-12.1837 11.9875,-376.0354 11.9875,-808.5591 z m -264.8462,584.267 -1.7946,-229.8301 -17.5559,143.99 c -12.8828,105.6664 -13.683,166.8364 -3.0082,229.8301 8.0024,47.2103 16.7103,85.8402 19.3506,85.8402 2.6408,0 3.9937,-103.4254 3.0081,-229.8302 z m 1044.1264,99.9291 c -3.0174,-22.9793 -5.5402,-6.8894 -5.6024,35.7538 -0.047,42.6432 2.4083,61.4431 5.4898,41.7793 3.0825,-19.6602 3.1337,-54.5501 0.093,-77.5331 z m -716.0921,46.83 c 6.8355,-24.2679 5.5416,-28.75 -4.7981,-16.6142 -7.7871,9.1378 -14.2544,26.1655 -14.3715,37.8435 -0.279,28.3365 7.6979,19.494 19.1696,-21.2293 z m 5.8819,-708.8739 c -0.3719,-322.8698 -5.4611,-601.9889 -11.3174,-620.2645 -5.8558,-18.2756 -10.9487,255.8592 -11.3174,609.1885 -0.372,367.4956 4.4587,632.9356 11.3174,620.2645 6.5932,-12.1838 11.6861,-286.3185 11.3174,-609.1885 z m 542.1832,568.3433 c -4.454,-8.8351 -7.7578,-6.21 -8.427,6.6937 -0.6044,11.6743 2.692,18.2166 7.3256,14.5356 4.6354,-3.692 5.1305,-13.2323 1.1019,-21.2293 z m 72.5556,-222.2134 c -1.0832,-143.8313 -5.3592,-198.7985 -13.1441,-168.9113 -13.8605,53.2098 -17.0556,364.254 -3.8497,374.7431 5.1143,4.0612 11.391,7.3841 13.9481,7.3841 2.5571,0 3.9287,-95.949 3.0453,-213.2159 z M 1726.1517,2783.494 c 3.2639,-328.8473 1.2647,-365.7235 -23.1364,-426.4319 l -26.71,-66.4569 -0.1394,465.1984 c -0.1396,442.4443 1.0042,463.3007 23.1369,426.4319 19.995,-33.3097 23.7738,-89.4436 26.8444,-398.7415 z m 460.0202,240.9063 c -2.8174,-31.9842 -5.1227,-5.815 -5.1227,58.1499 0,63.9647 2.3061,90.1303 5.1227,58.1497 2.8175,-31.9842 2.8175,-84.319 0,-116.2996 z m -257.5118,-85.8401 c 4.1937,-112.6999 4.8446,-194.9403 1.4506,-182.7566 -3.3941,12.1838 -15.8523,51.2088 -27.6859,86.7263 -18.5457,55.665 -19.1162,81.2657 -4.1332,185.4665 9.56,66.4902 18.5893,119.6704 20.0646,118.1825 1.4739,-1.4768 6.1121,-94.9189 10.3039,-207.6187 z m -691.0563,91.6219 c -3.0174,-22.9793 -5.5402,-6.8893 -5.6024,35.7538 -0.047,42.6432 2.4083,61.4431 5.4899,41.7793 3.0825,-19.6602 3.1336,-54.5501 0.093,-77.5331 z m 1116.7583,-290.9927 c -2.6269,-258.2295 -8.5734,-227.7774 -14.3991,73.7561 -2.0177,104.533 0.9392,184.2813 6.5756,177.2184 5.636,-7.0591 9.1568,-119.999 7.8235,-250.9745 z M 1231.5239,1653.7264 c -2.9942,-636.6019 -10.091,-1217.26919 -15.7757,-1290.37177 l -10.335,-132.91391 -9.9598,83.07118 c -47.7078,397.92558 -36.5237,2434.8153 14.2312,2591.8198 22.797,70.5182 26.9382,-166.8179 21.8393,-1251.6053 z m 593.0344,1185.1484 c -0.372,-27.4135 -5.4612,-64.7955 -11.3174,-83.0712 -7.1796,-22.407 -10.8656,1.0338 -11.3175,71.995 -0.4185,68.0371 3.5661,97.3927 11.3175,83.0712 6.5932,-12.1838 11.6861,-44.5816 11.3174,-71.995 z m 104.5885,-503.965 C 1932.262,1983.7182 1898.5491,12.048537 1889.3044,4.7087709 c -3.4778,-2.7690625 -5.7028,610.1188091 -4.9446,1361.9607291 1.2274,1215.2348 3.6405,1361.4475 21.7571,1317.1391 15.5003,-37.9137 21.0131,-121.4241 23.0299,-348.8988 z m -162.0833,274.1348 c -3.5101,-10.6626 -6.3788,-1.9199 -6.3788,19.3833 0,21.3216 2.8687,30.0422 6.3788,19.3832 3.5104,-10.6626 3.5104,-28.1076 0,-38.7665 z m 543.8859,-159.9138 c -4.4541,-8.8351 -7.7579,-6.21 -8.427,6.6937 -0.6044,11.6743 2.6921,18.2165 7.3255,14.5356 4.6355,-3.692 5.1305,-13.2323 1.1019,-21.2293 z m 106.3809,-64.3783 c 4.5006,-45.6891 3.05,-75.5947 -3.2219,-66.4569 -16.1217,23.4815 -31.86,131.3521 -21.1689,145.0865 13.563,17.4302 15.5635,10.9802 24.3914,-78.6296 z m -63.7576,-152.2971 c -2.7664,-35.0301 -5.033,-6.3688 -5.033,63.6879 0,70.0566 2.2643,98.7144 5.033,63.6879 2.7664,-35.0302 2.7664,-92.3493 0,-127.3758 z M 2311.8806,206.37963 c -2.0272,-407.10766 -3.6869,-77.2857 -3.6869,732.93493 0,810.22054 1.6597,1143.30634 3.6869,740.19344 2.0272,-403.1129 2.0272,-1066.02063 0,-1473.12837 z m -237.1877,773.9167 c 1.8784,-704.831 -1.8179,-1508.29514 -8.2163,-1785.47584 -9.1932,-398.33919 -12.1333,-136.01149 -14.0288,1251.60526 -1.3158,965.56365 -6.2846,1775.50735 -11.0349,1799.87485 -7.2901,37.3931 -5.6345,42.0561 10.6145,29.9056 16.116,-12.0509 19.8076,-223.1181 22.6655,-1295.90987 z m 371.1541,678.96817 c 1.7761,-278.3031 -1.4878,-459.2948 -7.3901,-409.8177 -5.8149,48.7351 -17.103,138.4519 -25.0841,199.3708 -11.1328,84.9725 -22.2266,750.2691 -13.4826,808.5591 0.9159,6.0919 10.9114,-13.8451 22.2178,-44.3046 16.5377,-44.5556 21.1782,-152.8176 23.739,-553.8076 z m 78.4733,72.918 c 0.1395,-100.0103 -2.0596,-179.7586 -4.9092,-177.2184 -2.8453,2.5475 -9.2713,89.3476 -14.2744,192.9096 -5.0026,103.562 -11.9678,208.2317 -15.4785,232.5992 -6.1134,42.4365 -5.5239,41.9713 14.0052,-11.0761 14.1614,-38.4712 20.47,-110.9129 20.6569,-237.2143 z m 158.8572,35.0745 c -4.4216,-138.5922 -12.6928,-266.9353 -18.3774,-285.211 -20.0782,-64.5518 -30.8071,115.5723 -14.844,249.2135 8.368,70.0567 19.0111,163.5099 23.6511,207.6779 4.6401,44.1643 10.5011,80.3021 13.0248,80.3021 2.5246,0 0.9671,-113.394 -3.4545,-251.9825 z m -92.4734,-365.1106 c -2.7757,-35.2517 -5.0738,-9.2634 -5.1055,57.7473 -0.028,67.0108 2.2411,95.8494 5.0483,64.0904 2.8082,-31.7591 2.8315,-86.586 0.047,-121.8377 z m -1227.406,-27.6609 c -2.7338,-38.3124 -4.9891,-9.8467 -5.0165,63.2559 -0.028,73.1026 2.2083,104.4482 4.9662,69.658 2.7571,-34.7902 2.7804,-94.6015 0.047,-132.9139 z M 2508.7534,900.54802 c 8.4725,-246.26349 6.994,-512.17612 -4.68,-841.787608 l -17.0649,-481.812652 0.6417,924.85876 c 0.3719,508.67228 2.4595,887.47678 4.68,841.78758 2.2224,-45.6891 9.6134,-245.0599 16.4251,-443.04608 z m 142.3088,221.52308 c -1.5855,-137.06741 -7.7956,-294.07188 -13.8038,-348.89883 -7.6864,-70.14159 -11.271,11.93639 -12.0943,276.90383 -0.8602,277.3579 2.7756,369.29 13.8032,348.8988 9.4992,-17.5668 13.9217,-118.8139 12.0949,-276.9038 z m -116.9448,241.5967 c -4.454,-8.8351 -7.7578,-6.21 -8.4269,6.6937 -0.6044,11.6743 2.692,18.2166 7.3254,14.5356 4.6356,-3.692 5.1307,-13.2323 1.102,-21.2293 z m 42.1807,-166.7035 c -3.3383,-13.7787 -6.1925,-5.1135 -6.3472,19.2541 -0.1396,24.3675 2.5757,35.6393 6.0659,25.0505 3.4916,-10.5925 3.6173,-30.5295 0.279,-44.3046 z M 2423.7209,396.58307 c -0.279,-353.329299 -4.7299,-796.92922 -9.944,-985.77766 -6.3278,-229.18031 -9.6335,15.76141 -9.9409,736.56422 -0.2324,593.9587 4.2218,1037.55857 9.9445,985.77757 5.722,-51.781 10.1951,-383.23486 9.9404,-736.56413 z m 151.95,689.49053 c -3.8682,-7.6167 -7.0354,-1.3661 -7.0354,13.8452 0,15.2297 3.1661,21.4582 7.0354,13.8452 3.8682,-7.6167 3.8682,-20.0774 0,-27.6904 z M 2686.592,559.95632 c -11.6411,-394.63224 -43.5108,-831.58278 -59.7148,-818.71599 -7.1948,5.71524 33.6641,945.6044 46.2466,1063.80172 17.9603,168.72673 22.9803,77.37431 13.4682,-245.08573 z m -95.7736,-598.112237 c -2.3014,-102.040933 -4.1843,-18.552578 -4.1843,185.525547 0,204.07813 1.8829,287.56277 4.1843,185.52555 2.3014,-102.04094 2.3014,-269.013909 0,-371.051097 z M 1237.415,-171.06982 c -3.1941,-16.75446 -5.8108,-3.06438 -5.8108,30.45945 0,33.50539 2.613,47.210235 5.8108,30.45945 3.1941,-16.75453 3.1941,-44.16804 0,-60.9189 z m -0.3719,-88.60922 c -3.5103,-10.66258 -6.379,-1.91985 -6.379,19.38328 0,21.32164 2.8687,30.04227 6.379,19.38328 3.5103,-10.66266 3.5103,-28.10758 0,-38.76656 z m 1074.8232,-868.78016 c -2.3154,-99.379 -4.2123,-21.1887 -4.2171,173.75156 -0.01,194.94032 1.8877,276.24664 4.2077,180.68532 2.3201,-95.56508 2.3247,-255.06168 0.01,-354.43688 z m 199.414,-3.4705 c -10.6818,-52.501 -12.1687,-30.6107 -7.0781,104.2155 3.5428,93.86664 7.8783,225.94977 9.6316,293.51805 1.7528,67.56453 4.939,20.66805 7.0786,-104.21555 2.1387,-124.88359 -2.1945,-256.9667 -9.6321,-293.518 z m -200.1887,-235.1579 c -3.5382,-10.7771 -6.6625,-4.6409 -6.9465,13.6348 -0.2791,18.2756 2.6083,27.0924 6.4296,19.5937 3.8217,-7.4985 4.0541,-22.4513 0.516,-33.2285 z m -951.1563,0.3693 c -129.0437,-7.0112 -389.95241,-37.2011 -462.10999,-53.4683 -86.54836,-19.5125 -226.84343,-99.0799 -268.04031,-152.0128 -49.08301,-63.0677 -36.54331,-169.0517 28.82081,-243.5868 41.16009,-46.9371 138.12286,-86.5047 229.92685,-93.826 46.53422,-3.7106 94.9789,-15.1486 114.12254,-26.9447 18.2951,-11.2718 44.0176,-20.4946 57.1607,-20.4946 14.4363,0 33.9793,-17.755 49.3654,-44.8473 53.391,-94.0255 173.919,-143.7352 297.312,-122.6241 63.3178,10.8325 65.9424,10.2011 99.896,-23.9983 85.572,-86.1872 164.6554,-128.7935 282.9873,-152.4559 79.9007,-15.9755 173.1572,-1.5876 291.1675,44.8992 64.6327,25.4639 103.2607,33.1988 165.8009,33.1988 106.5659,0 288.063,45.8037 364.9309,92.0945 32.8746,19.7968 78.6018,59.586 101.616,88.4209 34.5743,43.3225 47.3873,51.3823 73.7496,46.4054 53.9104,-10.1827 139.8506,14.8679 172.9385,50.4039 18.1301,19.4756 43.3155,32.8075 61.9678,32.8075 17.2833,0 35.1177,4.748 39.6323,10.5482 4.5145,5.8003 51.3551,10.4375 104.0893,10.3083 153.249,-0.4061 272.3887,63.2042 293.9653,156.9047 15.1676,65.8662 -4.6731,109.3586 -74.8277,164.0342 -55.4579,43.2191 -70.099,48.5763 -157.116,57.4815 -52.7773,5.3978 -174.4165,9.9907 -270.309,10.2049 -396.0369,0.8861 -740.616,35.3882 -882.1492,88.3322 -47.9801,17.9471 -128.0351,37.851 -177.8994,44.2308 -83.8605,10.7254 -373.3275,12.8742 -536.9981,3.9838 z"
     id="svg-cloud-rain"
     inkscape:connector-curvature="0" />
</svg>
