<?xml version="1.0" encoding="UTF-8" standalone="no"?>
<!-- Created with Inkscape (http://www.inkscape.org/) -->

<svg
   xmlns:dc="http://purl.org/dc/elements/1.1/"
   xmlns:cc="http://creativecommons.org/ns#"
   xmlns:rdf="http://www.w3.org/1999/02/22-rdf-syntax-ns#"
   xmlns:svg="http://www.w3.org/2000/svg"
   xmlns="http://www.w3.org/2000/svg"
   xmlns:sodipodi="http://sodipodi.sourceforge.net/DTD/sodipodi-0.dtd"
   xmlns:inkscape="http://www.inkscape.org/namespaces/inkscape"
   id="svg3624"
   version="1.1"
   inkscape:version="0.91 r13725"
   width="576"
   height="324"
   viewBox="0 0 576 324"
   sodipodi:docname="cloud-rain.svg">
  <metadata
     id="metadata3630">
    <rdf:RDF>
      <cc:Work
         rdf:about="">
        <dc:format>image/svg+xml</dc:format>
        <dc:type
           rdf:resource="http://purl.org/dc/dcmitype/StillImage" />
        <dc:title></dc:title>
      </cc:Work>
    </rdf:RDF>
  </metadata>
  <defs
     id="defs3628" />
  <sodipodi:namedview
     pagecolor="#ffffff"
     bordercolor="#666666"
     borderopacity="1"
     objecttolerance="10"
     gridtolerance="10"
     guidetolerance="10"
     inkscape:pageopacity="0"
     inkscape:pageshadow="2"
     inkscape:window-width="1834"
     inkscape:window-height="808"
     id="namedview3626"
     showgrid="false"
     inkscape:zoom="1.8757972"
     inkscape:cx="202.96948"
     inkscape:cy="162"
     inkscape:window-x="0"
     inkscape:window-y="0"
     inkscape:window-maximized="0"
     inkscape:current-layer="svg3624" />
  <path
     style="fill:#000000;fill-opacity:.5"
     d="m 258.44459,236.90479 c -1.09124,-0.21582 -2.56623,-1.02925 -2.85929,-1.57684 -0.70717,-1.32136 0.82326,-2.34273 3.8568,-2.57394 1.7365,-0.13235 2.18181,-0.0541 3.35249,0.58893 1.11098,0.61027 1.35,0.89301 1.35,1.59697 0,0.68331 -0.21125,0.95501 -1.05,1.35048 -1.06484,0.50207 -3.55459,0.83104 -4.65,0.6144 z m 5.61714,-6.71233 c -0.54178,-0.54178 0.13521,-1.14714 1.28286,-1.14714 1.27338,0 1.94123,0.72303 1.08909,1.17908 -0.79121,0.42344 -1.93193,0.40808 -2.37195,-0.0319 z m 2.99534,-2.25 c -0.54188,-0.21742 0.1279,-0.99714 0.85655,-0.99714 0.71863,0 1.0685,0.59699 0.54441,0.92895 -0.45382,0.28744 -0.81118,0.30483 -1.40096,0.0682 z m 1.13752,-2.769 c 0,-1.44195 -1.10057,-2.86124 -3.1501,-4.06234 -1.27827,-0.74912 -1.54073,-0.78203 -7.41254,-0.92966 -8.91133,-0.22405 -18.68708,-0.72317 -20.35348,-1.0392 -0.79943,-0.15161 -4.66659,-0.42003 -8.59369,-0.59648 -14.78945,-0.66453 -23.14181,-2.08389 -25.89487,-4.40044 -0.52045,-0.43793 -0.89532,-1.04505 -0.89532,-1.45002 0,-1.26856 2.80766,-3.04741 6.36052,-4.02984 1.31485,-0.36357 1.39934,-0.4459 1.24575,-1.21384 -0.23603,-1.18012 0.89942,-1.88021 4.8213,-2.97268 3.37862,-0.94113 4.79984,-1.77746 6.68465,-3.93364 0.80141,-0.91679 1.01822,-1.58285 1.70897,-5.25 0.43511,-2.31 1.05649,-5.3475 1.38084,-6.75 0.89057,-3.85081 2.28574,-11.13441 2.85964,-14.92898 0.44188,-2.92165 0.46464,-3.94895 0.16816,-7.59022 -0.3812,-4.68186 -0.88169,-19.46009 -1.02602,-30.29569 -0.0518,-3.88569 -0.20314,-7.24133 -0.33642,-7.45698 -0.13327,-0.21564 -0.0954,-0.88394 0.0841,-1.48511 0.19631,-0.65745 0.45476,-7.30963 0.64854,-16.69302 0.1772,-8.58 0.44604,-18.029999 0.59743,-20.999999 0.15139,-2.97 0.35243,-10.395 0.44676,-16.5 0.0943,-6.105 0.25037,-13.4381 0.34678,-16.29578 l 0.17528,-5.19577 1.24189,0.20538 c 0.68304,0.11296 1.34313,0.26527 1.46688,0.33848 0.12375,0.0732 0.23449,15.48138 0.24609,34.24039 0.0129,20.808589 0.13191,34.341239 0.30533,34.707299 0.1798,0.37953 0.22599,-12.22245 0.12571,-34.296289 l -0.15853,-34.89628 0.6782,0.0963 0.6782,0.0963 0.15553,38.1 c 0.11253,27.566069 0.25055,38.348829 0.49922,38.999999 0.26131,0.6843 0.34986,-8.429 0.36947,-38.024999 l 0.0258,-38.925 0.75,0 0.75,0 0.0299,42.225 c 0.0164,23.223749 0.13799,42.562499 0.2701,42.974999 0.1321,0.4125 0.25365,-18.58875 0.27009,-42.224999 0.0264,-37.98671 0.0821,-42.975 0.4799,-42.975 0.39786,0 0.45346,5.20496 0.4799,44.925 0.0164,24.708749 0.13799,45.262499 0.2701,45.674999 0.1321,0.4125 0.25365,-19.80375 0.2701,-44.924999 0.0198,-30.23006 0.13134,-45.675 0.3299,-45.675 0.165,0 0.30084,0.16875 0.30186,0.375 9e-4,0.20625 1.9e-4,21.32179 -0.002,46.92342 -0.003,41.430999 0.0486,46.773829 0.47177,48.598629 0.26151,1.12761 0.53353,2.10827 0.6045,2.17923 0.071,0.071 0.12663,-21.79842 0.12371,-48.59863 -0.003,-26.800209 -0.004,-48.879529 -0.003,-49.065149 0.002,-0.18563 0.338,-0.3375 0.74787,-0.3375 l 0.7452,0 0.0798,53.766429 c 0.0543,36.55733 0.17945,53.90121 0.39113,54.1875 0.17124,0.23159 0.35312,0.82607 0.40418,1.32107 0.0511,0.495 0.14721,0.95625 0.21366,1.025 0.0665,0.0687 0.12083,-24.7375 0.12083,-55.125 0,-30.406649 0.11538,-55.249999 0.25662,-55.249999 0.38919,0 0.63873,3.49572 0.64246,9 0.002,2.7225 0.14972,8.865 0.32862,13.65 0.17889,4.785 0.43199,19.5675 0.56244,32.849999 0.22732,23.14549 0.23557,22.48725 0.19852,-15.825019 -0.0286,-29.53821 0.0498,-39.97501 0.30033,-39.975 0.54342,3e-5 0.82393,33.38079 0.59108,70.337959 -0.11327,17.97836 -0.0989,32.58087 0.032,32.45002 0.13087,-0.13085 0.30544,-23.34542 0.38794,-51.58793 0.0993,-33.987099 0.25144,-51.331899 0.45,-51.296409 0.165,0.0295 0.53344,-0.15763 0.81874,-0.41584 0.42916,-0.38838 0.54319,-0.39764 0.66025,-0.0536 0.0778,0.22871 0.25957,16.54834 0.40387,36.26584 l 0.26236,35.849999 0.0524,-36.340499 0.0524,-36.34049 0.73944,-0.48451 c 0.4067,-0.26648 0.8117,-0.4845 0.9,-0.4845 0.0883,0 0.1757,26.08875 0.1942,57.974999 0.0285,49.15154 0.0943,57.65539 0.43249,55.875 0.32261,-1.69858 0.40094,-12.78417 0.40975,-57.99295 0.006,-30.741129 0.0934,-56.026429 0.19422,-56.189569 0.11678,-0.18897 0.33694,-0.16912 0.60661,0.0547 0.30432,0.25256 0.42329,0.25666 0.42329,0.0145 0,-0.18521 0.135,-0.33674 0.3,-0.33674 0.19829,0 0.32492,14.824 0.37349,43.725 l 0.0735,43.724999 0.15151,-43.799999 c 0.15063,-43.54949 0.15493,-43.8 0.7515,-43.8 0.67847,0 0.58695,-1.04932 1.03345,11.85 l 0.25441,7.35 -0.0428,-9.51111 c -0.0309,-6.86215 0.054,-9.60797 0.30493,-9.85886 0.56793,-0.56794 0.997,-0.029 1.04508,1.31268 l 0.0451,1.25729 0.17994,-1.35 c 0.17442,-1.30858 0.21216,-1.35 1.22994,-1.35 l 1.05,0 -0.0928,11.4 c -0.0919,11.2907 -0.007,13.04472 1.12886,23.4 0.65424,5.9628 0.99181,18.563719 0.72734,27.149999 -0.3012,9.77826 -0.27207,14.46226 0.19026,30.6 0.42178,14.722 0.70368,16.75271 5.51819,39.75 1.30335,6.22571 1.84302,10.70218 1.46468,12.14943 -0.3605,1.37905 -1.40181,1.78631 -2.79294,1.09232 -0.54502,-0.27189 -1.05875,-0.42655 -1.14161,-0.34368 -0.27549,0.27547 0.86477,3.87172 1.91654,6.04456 1.31034,2.70704 2.89748,4.20495 4.68316,4.41987 0.7141,0.0859 3.45836,0.30447 6.09836,0.48558 12.36168,0.84808 23.73003,2.92406 28.11054,5.13328 3.00681,1.51643 3.63949,2.78676 2.11446,4.24555 -3.0762,2.9426 -13.86476,5.05184 -30.375,5.93853 -3.2175,0.1728 -6.96691,0.3874 -8.33202,0.47689 l -2.48204,0.16271 1.21696,0.88155 c 0.66933,0.48486 1.48198,1.31623 1.80591,1.84749 0.62614,1.02692 0.79049,2.75734 0.29119,3.06592 -0.18102,0.11188 -0.3,-0.2934 -0.3,-1.02185 z m -7.065,-5.69497 c -0.15675,-0.14675 -1.5,-0.60593 -2.985,-1.02038 -2.46234,-0.68722 -2.96832,-0.73167 -5.74838,-0.50499 -1.67661,0.13671 -5.32161,0.35515 -8.1,0.48542 l -5.05162,0.23686 2.7,0.23689 c 1.485,0.13029 6.345,0.3496 10.8,0.48735 4.455,0.13775 8.22825,0.27188 8.385,0.29806 0.18,0.0301 0.18,-0.0507 0,-0.21921 z m 22.515,-0.77242 c 13.31555,-1.15427 22.95,-3.79043 22.95,-6.27952 0,-0.91146 -0.67936,-1.48279 -3.03105,-2.5491 -3.40276,-1.54289 -10.24603,-3.01509 -18.28788,-3.93429 -6.03527,-0.68986 -6.98898,-0.72175 -7.84717,-0.26247 -0.53995,0.28898 -0.17175,0.45004 2.66137,1.16414 5.82808,1.46899 8.48673,3.37689 6.77973,4.86526 -0.85526,0.74572 -3.70652,1.66611 -6.24999,2.01751 -1.30626,0.18046 -3.72501,0.65987 -5.37501,1.06534 -3.87359,0.95191 -8.95402,1.81082 -13.575,2.29503 -2.02125,0.2118 -3.67328,0.4576 -3.67118,0.54622 0.002,0.0886 1.11586,0.52827 2.475,0.97701 l 2.47118,0.81588 7.65,-0.12645 c 4.2075,-0.0695 10.08,-0.3371 13.05,-0.59456 z m -58.95,-1.12777 c -7.62341,-1.66565 -10.02451,-2.43643 -11.96204,-3.83997 -1.52354,-1.10365 -1.8146,-2.06188 -0.98161,-3.2317 l 0.61508,-0.86381 -0.97985,-0.46726 c -0.92806,-0.44256 -1.12158,-0.42136 -3.66072,0.40101 -3.55473,1.15129 -5.05569,2.0199 -5.17006,2.99193 -0.0521,0.44278 0.13509,0.96013 0.45,1.24377 1.7651,1.58977 9.08859,3.14202 17.9392,3.8023 4.58221,0.34184 5.44246,0.33352 3.75,-0.0363 z m 27.15,-0.17574 c 1.13224,-0.22694 1.00517,-0.27735 -2.25,-0.89272 -4.64367,-0.87786 -10.80995,-1.72951 -16.8,-2.32032 -4.76897,-0.47037 -13.19527,-2.14408 -17.66788,-3.50936 l -1.91788,-0.58544 -0.75496,0.75495 c -0.72739,0.7274 -0.73658,0.78299 -0.25172,1.52298 1.0064,1.53595 5.1101,3.04268 12.27317,4.50625 2.0181,0.41234 4.07427,0.81074 4.56927,0.88533 1.45482,0.21921 21.48731,-0.0985 22.8,-0.36167 z m 10.9929,-1.10611 c 3.02891,-0.41187 5.6421,-0.75348 5.8071,-0.75912 0.165,-0.006 0.03,-0.17122 -0.3,-0.36795 -0.41573,-0.24784 -2.99552,-0.37627 -8.4,-0.41818 -11.91064,-0.0924 -17.24504,-0.32205 -19.47167,-0.83844 -1.10856,-0.25709 -3.05343,-0.451 -4.32194,-0.43091 l -2.30639,0.0365 3.3,0.39815 c 5.33585,0.64379 13.03657,1.90138 15.3,2.49862 2.87307,0.7581 4.04327,0.74474 10.3929,-0.1187 z m 8.8071,-1.65113 c 0.42305,-0.18179 0.0692,-0.25783 -1.2,-0.25783 -1.26915,0 -1.62305,0.076 -1.2,0.25783 0.33,0.14181 0.87,0.25783 1.2,0.25783 0.33,0 0.87,-0.11602 1.2,-0.25783 z m -23.93125,-1.08125 c -0.0997,-0.0997 -0.35844,-0.11034 -0.575,-0.0237 -0.23932,0.0958 -0.16823,0.16685 0.18125,0.18125 0.31625,0.013 0.49344,-0.0579 0.39375,-0.15757 z m 4.2,0 c -0.0997,-0.0997 -0.35844,-0.11034 -0.575,-0.0237 -0.23932,0.0958 -0.16823,0.16685 0.18125,0.18125 0.31625,0.013 0.49344,-0.0579 0.39375,-0.15757 z m 14.33125,-0.11875 c -0.21514,-0.3481 -1.76304,-0.3481 -2.85,0 -0.55576,0.17799 -0.25981,0.24794 1.14271,0.27009 1.19234,0.0188 1.82409,-0.0811 1.70729,-0.27009 z m 4.875,-0.20405 c 0.37125,-0.0885 0.675,-0.27879 0.675,-0.42276 0,-0.49725 -1.45673,-0.62471 -3.14174,-0.27491 -1.45258,0.30156 -1.63811,0.41452 -1.31673,0.80176 0.36312,0.43753 1.6625,0.40178 3.78347,-0.10409 z m 9.55845,-0.82267 c 2.15499,-0.98659 2.81655,-1.56373 2.81655,-2.45713 0,-0.83242 -1.73031,-1.9256 -4.17945,-2.64051 -1.9545,-0.57052 -2.04182,-0.57691 -1.58055,-0.11564 0.198,0.198 0.36,0.58901 0.36,0.86892 0,0.6109 -1.77439,2.22551 -3.18495,2.89816 -0.58419,0.27858 -1.01505,0.70763 -1.01505,1.01078 0,0.2897 -0.14155,0.61422 -0.31457,0.72114 -0.20881,0.12905 -0.21477,0.31466 -0.0178,0.55206 0.52235,0.62939 5.08422,0.0923 7.11576,-0.83778 z m -47.80845,0.815 c -0.37125,-0.0715 -0.97875,-0.0715 -1.35,0 -0.37125,0.0715 -0.0675,0.13001 0.675,0.13001 0.7425,0 1.04625,-0.0585 0.675,-0.13001 z m 29.475,-0.42976 c 1.65,-0.19516 2.83228,-0.41158 2.62729,-0.48092 -0.46423,-0.15704 -8.23313,0.77494 -8.46096,1.015 -0.0915,0.0964 0.50867,0.0955 1.33367,-0.002 0.825,-0.0975 2.85,-0.33692 4.5,-0.53209 z m -33.075,0.12976 c -0.37125,-0.0715 -0.97875,-0.0715 -1.35,0 -0.37125,0.0715 -0.0675,0.13001 0.675,0.13001 0.7425,0 1.04625,-0.0585 0.675,-0.13001 z m -2.25625,-0.26953 c -0.0997,-0.0997 -0.35844,-0.11035 -0.575,-0.0237 -0.23932,0.0958 -0.16823,0.16685 0.18125,0.18125 0.31625,0.013 0.49344,-0.0579 0.39375,-0.15757 z m 10.50111,-0.38758 c -0.04,-0.53087 -0.35907,-0.5714 -4.77996,-0.60719 -5.80902,-0.047 -10.77998,-0.6013 -12.75408,-1.4221 -1.00558,-0.41811 -1.74441,-1.40257 -1.43199,-1.90808 0.25418,-0.41126 -0.12701,-0.36874 -1.7978,0.20055 -1.31409,0.44776 -1.39983,0.53167 -0.9096,0.89013 1.68139,1.22947 7.20897,2.31626 15.00357,2.9499 6.90642,0.56144 6.72015,0.56432 6.66986,-0.10321 z m 4.1495,-0.0427 c -3.08519,-0.57452 -3.74738,-0.53491 -3.14719,0.18828 0.26121,0.31473 1.09202,0.41604 3.23956,0.39503 l 2.88827,-0.0283 -2.98064,-0.55506 z m 18.39612,-0.15488 c 2.04351,-0.228 3.77785,-0.47691 3.85407,-0.55314 0.17703,-0.17703 -1.82774,-1.1887 -3.29786,-1.66421 -0.91248,-0.29515 -1.80197,-0.27578 -4.65,0.10127 -1.93693,0.25643 -4.55647,0.54783 -5.82119,0.64757 -1.73235,0.13661 -2.42867,0.32405 -2.82316,0.75997 -0.28801,0.31824 -0.42881,0.67347 -0.31289,0.7894 0.71052,0.71051 6.26679,0.6761 13.05103,-0.0809 z m 23.28452,0.43614 c 3.39528,-0.92498 3.96132,-1.85191 1.88647,-3.0892 -1.40722,-0.83916 -1.65693,-0.8254 -1.10347,0.0608 0.47561,0.76157 -0.20809,1.9235 -1.53583,2.6101 -1.49699,0.77413 -1.18653,0.94662 0.75283,0.41827 z m -37.10458,-1.01973 c 0.33138,-0.72731 0.30788,-0.74986 -0.77685,-0.74545 -0.61521,0.002 -1.72607,0.18749 -2.46857,0.41108 l -1.35,0.40652 1.95,0.3007 c 1.0725,0.16538 2.02958,0.3179 2.12685,0.33892 0.0973,0.021 0.33062,-0.29927 0.51857,-0.71177 z m 22.10458,0.45 c 0.495,-0.12596 0.6975,-0.25993 0.45,-0.29772 -0.74971,-0.11445 -1.92321,0.041 -2.4,0.31805 -0.56738,0.32961 0.62353,0.3172 1.95,-0.0203 z m 4.65,0 c 0,-0.165 -0.2025,-0.3 -0.45,-0.3 -0.2475,0 -0.45,0.135 -0.45,0.3 0,0.165 0.2025,0.3 0.45,0.3 0.2475,0 0.45,-0.135 0.45,-0.3 z m -1.14772,-0.96772 c -0.16357,-0.16357 -0.72124,-0.19892 -1.26257,-0.08 -1.1975,0.26301 -0.65046,0.69677 0.6399,0.50738 0.5958,-0.0874 0.81331,-0.23673 0.62267,-0.42736 z m -4.79412,0.12163 c 0.41358,-0.16596 0.22636,-0.44124 -1.00578,-1.47891 -1.65193,-1.39121 -2.85494,-1.6154 -4.60238,-0.85769 l -0.9,0.39025 0.90957,0.20568 c 0.50026,0.11313 1.51276,0.60585 2.25,1.09494 1.30572,0.86622 2.3144,1.06073 3.34859,0.64573 z m -35.34562,-0.71416 c 0.48288,-0.25841 0.31298,-0.4027 -1.2,-1.01901 -2.21531,-0.9024 -4.47565,-0.97658 -4.69078,-0.15395 -0.0815,0.31173 -0.0438,0.7357 0.0838,0.94215 0.51528,0.83373 4.39238,0.98783 5.80702,0.23081 z m 2.51246,0.31156 c -0.5524,-0.20175 -1.0976,-0.20175 -1.65,0 -0.7262,0.26523 -0.6274,0.30132 0.825,0.30132 1.4524,0 1.5512,-0.0361 0.825,-0.30132 z m 3.375,-0.60393 c -0.9075,-0.12579 -2.1225,-0.29457 -2.7,-0.37504 -1.45974,-0.20341 -0.52756,0.30346 1.54616,0.84072 1.18633,0.30735 1.76004,0.3306 2.20384,0.0893 0.5149,-0.27996 0.36596,-0.35868 -1.05,-0.55496 z m 4.475,0.46016 c 0.0687,-0.0591 -0.36203,-0.10754 -0.95729,-0.10754 -0.59526,0 -1.16079,0.127 -1.25672,0.28223 -0.15881,0.25695 1.90121,0.0944 2.21401,-0.17469 z m -16.95645,-0.92537 c -0.0309,-1.1 -0.0529,-1.11986 -1.35,-1.2215 -0.89599,-0.0702 -1.47472,-0.30406 -1.80586,-0.72975 l -0.48732,-0.62644 -1.10165,0.68086 c -0.60591,0.37447 -1.05165,0.83472 -0.99053,1.02276 0.17333,0.53331 1.54913,1.09612 3.75047,1.53423 1.10899,0.22071 2.01634,0.41405 2.01634,0.42966 0,0.0156 -0.0142,-0.47481 -0.0315,-1.08982 z m 45.13244,0.53007 c 0.29581,-0.15874 0.15207,-0.42462 -0.54802,-1.01371 -0.75564,-0.63582 -1.26014,-0.79853 -2.47599,-0.79853 -0.83984,0 -1.47073,0.056 -1.40198,0.12448 0.0687,0.0685 0.7325,0.60611 1.475,1.19477 1.31796,1.0449 1.77899,1.12191 2.95099,0.49299 z m 5.56104,-0.68131 c 0.3926,-0.6224 -0.37479,-1.55467 -1.64386,-1.99708 -0.82531,-0.2877 -0.85521,-0.27019 -0.54106,0.31679 0.26875,0.50217 0.21201,0.78432 -0.29585,1.47124 -0.58345,0.78915 -0.59158,0.87051 -0.11374,1.13792 0.6209,0.34748 2.13027,-0.1929 2.59451,-0.92887 z m -60.86203,0.36907 c -0.10197,-0.165 -0.34619,-0.29793 -0.5427,-0.29541 -0.21469,0.003 -0.17769,0.12067 0.0927,0.29541 0.57633,0.37246 0.68019,0.37246 0.45,0 z m -1.22453,-0.7821 c 0.26099,-0.10015 0.47453,-0.37015 0.47453,-0.6 0,-0.44588 -0.5042,-0.47919 -1.95,-0.1288 l -0.9,0.21811 0.75,0.32738 c 0.91655,0.40008 1.02787,0.41263 1.62547,0.18331 z m 59.07176,-0.23857 c 0.23079,-0.60141 0.0604,-0.67726 -1.19255,-0.53098 -1.02616,0.1198 -1.06952,0.16229 -0.55183,0.54083 0.72473,0.52994 1.53901,0.52534 1.74438,-0.01 z m 4.40277,-0.73377 c 0,-0.35689 -0.42865,-0.74773 -1.20306,-1.09694 -1.54755,-0.69785 -1.84582,-0.41318 -0.46272,0.44163 0.58618,0.36228 1.06578,0.78267 1.06578,0.93422 0,0.15154 0.135,0.27553 0.3,0.27553 0.165,0 0.3,-0.2495 0.3,-0.55444 z m -59.16419,-0.53829 c 1.0372,-0.26711 1.82746,-0.54401 1.75613,-0.61534 -0.23373,-0.23372 -4.46485,0.76034 -4.80755,1.12949 -0.25631,0.2761 -0.15927,0.31482 0.41561,0.16585 0.4125,-0.10689 1.59862,-0.41289 2.63581,-0.68 z m -4.87811,-0.10675 c 0.98577,-0.20348 2.2648,-0.60607 2.8423,-0.89465 1.09112,-0.54522 2.27212,-0.94619 4.39961,-1.49372 l 1.24961,-0.3216 0.10039,-1.90419 0.10039,-1.90418 -1.49434,1.30846 c -1.83581,1.60747 -3.25141,2.28619 -6.11964,2.93413 -2.25908,0.51033 -3.74423,1.12221 -4.09282,1.68624 -0.24957,0.4038 0.44661,1.2571 0.88757,1.08788 0.18405,-0.0706 1.14117,-0.29489 2.12693,-0.49837 z m 19.6423,-0.90268 c 0,-0.17121 -0.86095,-0.28275 -2.025,-0.26235 -1.46552,0.0257 -1.77634,0.0923 -1.125,0.24104 1.45253,0.33172 3.15,0.34321 3.15,0.0213 z m 4.37853,0.0997 c 0.48185,-0.1849 0.48433,-0.21764 0.0286,-0.37749 -0.27443,-0.0963 -1.14206,-0.1159 -1.92806,-0.0436 -1.31157,0.12058 -1.35508,0.14871 -0.5291,0.34199 1.25926,0.29467 1.81929,0.31291 2.42853,0.0791 z m 17.52147,-0.0305 c 0,-0.12811 -0.57375,-0.18847 -1.275,-0.13413 -2.10151,0.16285 -2.28093,0.29532 -0.45,0.33226 0.94875,0.0191 1.725,-0.07 1.725,-0.19813 z m 7.27913,0.0217 c -0.36898,-0.0712 -1.04398,-0.0731 -1.5,-0.004 -0.45602,0.0689 -0.15413,0.12722 0.67087,0.12947 0.825,0.002 1.19811,-0.0542 0.82913,-0.12538 z m 3.00158,0.0144 c -0.20311,-0.0822 -0.60811,-0.0872 -0.9,-0.0111 -0.29189,0.0761 -0.12571,0.1433 0.36929,0.14941 0.495,0.006 0.73382,-0.0561 0.53071,-0.1383 z m -43.50309,-0.59369 c 0.45519,-0.0871 0.76174,-0.26494 0.68123,-0.39522 -0.14328,-0.23182 -3.75648,0.4743 -4.05667,0.79279 -0.14339,0.15212 1.53687,-0.0458 3.37544,-0.39757 z m 55.21839,-0.7131 c -0.26982,-0.24743 -4.71124,-0.61166 -4.46581,-0.36623 0.0834,0.0834 0.86055,0.31129 1.72702,0.50643 1.59051,0.35821 3.19286,0.27618 2.73879,-0.1402 z m -52.29601,0.004 c 0.37263,-0.24081 0.34684,-0.29081 -0.15,-0.29081 -0.33,0 -0.8025,0.13086 -1.05,0.29081 -0.37263,0.24081 -0.34684,0.29081 0.15,0.29081 0.33,0 0.8025,-0.13086 1.05,-0.29081 z m 2.94954,-0.009 c 0.46644,-0.008 0.46652,-0.0289 0.001,-0.30048 -0.55427,-0.32352 -1.45074,-0.0925 -1.45074,0.37379 0,0.165 0.21354,0.21806 0.47454,0.11791 0.26099,-0.10016 0.69974,-0.18621 0.975,-0.19122 z m 11.45046,-0.17298 c 0,-0.0648 -0.27797,-0.1179 -0.6177,-0.1179 -0.33974,0 -0.53792,0.1291 -0.44039,0.2869 0.16008,0.25902 1.05809,0.11559 1.05809,-0.169 z m 4.575,-0.0296 c -0.37125,-0.0715 -0.97875,-0.0715 -1.35,0 -0.37125,0.0715 -0.0675,0.13001 0.675,0.13001 0.7425,0 1.04625,-0.0585 0.675,-0.13001 z m -11.625,-0.75578 c 0.2088,-0.22328 0.13294,-0.26178 -0.24953,-0.12665 -0.30225,0.10678 -1.11225,0.19622 -1.8,0.19874 -0.93772,0.003 -1.13792,0.0801 -0.80047,0.30636 0.51797,0.34734 2.4057,0.0967 2.85,-0.37845 z m 16.5785,0.46138 c -0.28683,-0.0751 -0.82683,-0.0778 -1.2,-0.006 -0.37317,0.0718 -0.1385,0.13319 0.5215,0.13652 0.66,0.003 0.96533,-0.0554 0.6785,-0.13047 z m 5.39025,0.0249 c -0.0997,-0.0997 -0.35844,-0.11035 -0.575,-0.0237 -0.23932,0.0958 -0.16823,0.16685 0.18125,0.18124 0.31625,0.013 0.49344,-0.0579 0.39375,-0.15756 z m -29.19005,-0.58455 c 0.77313,-0.14504 1.0713,-0.35654 1.0713,-0.75989 0,-0.6101 1.09497,-1.28252 2.625,-1.61202 0.53625,-0.11548 0.975,-0.24309 0.975,-0.28358 0,-0.0405 -0.36348,-1.07602 -0.80773,-2.30117 -0.75749,-2.089 -0.80881,-2.55327 -0.825,-7.46449 -0.0159,-4.81851 -0.045,-5.09417 -0.36384,-3.45 -0.5736,2.95749 -1.74634,6.24652 -3.16942,8.88889 -1.04306,1.93675 -1.38265,2.9196 -1.51133,4.37409 -0.19236,2.1743 -0.009,3.17113 0.54545,2.95852 0.21409,-0.0822 0.87135,-0.23981 1.46057,-0.35035 z m 15.39005,-0.0155 c -0.0997,-0.0997 -0.35844,-0.11034 -0.575,-0.0237 -0.23932,0.0958 -0.16823,0.16685 0.18125,0.18125 0.31625,0.013 0.49344,-0.0579 0.39375,-0.15757 z m 27.07886,-0.39646 c 0.18001,-0.0272 -2.60326,-1.5223 -2.83386,-1.5223 -0.0901,0 -0.16375,0.17123 -0.16375,0.38051 0,0.53926 1.53461,1.4096 2.25,1.27607 0.33,-0.0616 0.66643,-0.12203 0.74761,-0.13429 z m -39.07947,-0.6223 c 0.54388,-0.42782 0.62608,-0.6 0.28644,-0.6 -0.65272,0 -2.00458,0.63942 -2.00458,0.94815 0,0.45431 0.94017,0.2638 1.71814,-0.34815 z m 2.89272,0.29086 c -0.20471,-0.20471 -0.55436,-0.21114 -1.035,-0.019 -0.68204,0.27262 -0.66337,0.29128 0.30914,0.30915 0.71041,0.013 0.93805,-0.0779 0.72586,-0.29013 z m 31.30789,0.12789 c -0.0997,-0.0997 -0.35844,-0.11035 -0.575,-0.0237 -0.23932,0.0958 -0.16823,0.16685 0.18125,0.18125 0.31625,0.013 0.49344,-0.0579 0.39375,-0.15757 z m -28.41637,-0.7232 c 0.47129,-0.88061 -0.29898,-1.07124 -1.4645,-0.36245 -1.04933,0.63814 -0.9468,0.9669 0.30157,0.9669 0.53446,0 0.95697,-0.2196 1.16293,-0.60445 z m 26.41188,0.13726 c 0.32646,-0.39336 0.2626,-0.59232 -0.40417,-1.25909 -0.89702,-0.89701 -1.02958,-0.85124 -1.28884,0.44502 -0.18136,0.9068 -0.0743,1.02624 1.11702,1.24646 0.10355,0.0191 0.36275,-0.17544 0.57599,-0.43239 z m -20.11426,-0.10347 c -0.74853,-0.41985 -2.7,-0.68362 -2.7,-0.36493 0,0.35716 0.71182,0.55772 2.1,0.59167 0.71507,0.0175 0.90646,-0.0548 0.6,-0.22674 z M 263.09,202.87078 c -0.002,-0.20625 -0.11874,-0.55507 -0.25825,-0.77516 -0.20216,-0.31891 -0.29278,-0.29819 -0.44638,0.10208 -0.106,0.27622 -0.11682,0.62504 -0.0241,0.77515 0.24762,0.40066 0.734,0.33253 0.72867,-0.10207 z m -5.85383,-0.45 c -0.12244,-0.28875 -0.38091,-0.95845 -0.57437,-1.48822 l -0.35176,-0.96323 -0.52132,0.88254 c -0.66234,1.12125 -0.24496,2.09391 0.89852,2.09391 0.61961,0 0.72771,-0.10339 0.54893,-0.525 z m 8.88927,-0.18783 c -0.18844,-0.22705 -0.73577,-1.13177 -1.21629,-2.01048 l -0.87369,-1.59765 0.16037,1.33548 c 0.11404,0.94972 0.38977,1.53003 0.95457,2.00899 0.87487,0.74193 1.5158,0.91524 0.97504,0.26366 z m -20.73085,-0.18717 c -0.2475,-0.15995 -0.585,-0.29081 -0.75,-0.29081 -0.165,0 -0.0975,0.13086 0.15,0.29081 0.2475,0.15995 0.585,0.29081 0.75,0.29081 0.165,0 0.0975,-0.13086 -0.15,-0.29081 z m 3.3902,-0.525 c -0.34952,-2.27766 -0.27293,-2.19297 -1.51689,-1.67746 -0.61782,0.25604 -1.17535,0.51461 -1.23895,0.57463 -0.27812,0.26242 0.91434,1.59634 1.53325,1.71514 1.30239,0.24998 1.35116,0.22556 1.22259,-0.61231 z m 2.71399,-0.15 c -0.50243,-0.53625 -1.15072,-1.3125 -1.44064,-1.725 l -0.52713,-0.75 0.15482,1.28676 c 0.19585,1.62772 0.64252,2.16324 1.80435,2.16324 l 0.92211,0 -0.91351,-0.975 z m 2.74042,0.38373 c 0.099,-0.1602 -0.15358,-1.40895 -0.5613,-2.775 -0.40772,-1.36605 -0.8026,-2.75373 -0.87751,-3.08373 -0.11024,-0.48564 -0.1424,-0.45705 -0.16873,0.15 -0.0312,0.71913 0.40159,3.91373 0.7214,5.325 0.15942,0.7035 0.5768,0.88424 0.88614,0.38373 z m 7.20831,-0.92203 c 0.16705,-0.76056 0.0311,-1.09233 -0.84464,-2.0617 l -1.04373,-1.15529 -0.33228,0.72926 c -0.51966,1.14053 -0.40389,1.64857 0.61527,2.70007 1.07297,1.10703 1.32286,1.07398 1.60538,-0.21234 z m -30.35796,0.63423 0.73401,-0.27908 -0.78948,-1.59428 c -0.74848,-1.51147 -0.79995,-1.91379 -0.99096,-7.74592 -0.11298,-3.44973 -0.3851,-6.93314 -0.61957,-7.93092 l -0.4181,-1.77927 -0.34599,2.97927 c -0.60231,5.18657 -0.66903,6.81313 -0.38676,9.42927 0.15133,1.4025 0.34058,2.82 0.42057,3.15 0.21613,0.89168 1.42748,4.05 1.55335,4.05 0.0599,0 0.43922,-0.12558 0.84293,-0.27907 z m 3.35504,-0.32093 c -0.10197,-0.165 -0.31244,-0.3 -0.4677,-0.3 -0.15527,0 -0.2823,0.135 -0.2823,0.3 0,0.165 0.21047,0.3 0.46771,0.3 0.25724,0 0.38427,-0.135 0.28229,-0.3 z m 10.94398,-0.15725 c -0.20871,-0.25149 -0.44126,-0.39547 -0.51677,-0.31996 -0.20805,0.20805 0.21467,0.77721 0.57723,0.77721 0.19893,0 0.17617,-0.17214 -0.0605,-0.45725 z m 12.00021,-1.65361 c -0.53586,-1.00126 -0.67256,-0.48287 -0.25198,0.95558 0.34144,1.16775 0.39287,1.21992 0.48821,0.49511 0.0586,-0.44559 -0.0477,-1.0984 -0.23623,-1.45069 z m -19.79419,1.36086 c 0,-0.49699 -1.34826,-0.63822 -1.63674,-0.17145 -0.14811,0.23965 0.10317,0.34299 1.41174,0.58059 0.12375,0.0225 0.225,-0.16164 0.225,-0.40914 z m -4.76531,-1.07946 c -0.18408,-0.52804 -0.33469,-1.58863 -0.33469,-2.35687 0,-0.76824 -0.3373,-2.33435 -0.74956,-3.48023 l -0.74957,-2.08344 0.0961,3.3 c 0.0939,3.22516 0.33194,4.1716 1.33976,5.32684 0.63391,0.72663 0.79676,0.43763 0.39798,-0.7063 z m 6.56531,1.09716 c 0,-0.0728 -0.135,-0.21573 -0.3,-0.3177 -0.165,-0.10198 -0.3,-0.0424 -0.3,0.13229 0,0.17474 0.135,0.31771 0.3,0.31771 0.165,0 0.3,-0.0595 0.3,-0.1323 z m 1.65,-0.1677 c -0.10197,-0.165 -0.34619,-0.29793 -0.5427,-0.29541 -0.21469,0.003 -0.17768,0.12067 0.0927,0.29541 0.57633,0.37246 0.68019,0.37246 0.45,0 z m 2.4193,-2.7374 c -0.25471,-0.55693 -0.40687,-0.7426 -0.33812,-0.4126 0.0687,0.33 0.23295,1.2075 0.3649,1.95 0.2191,1.23298 0.24841,1.26875 0.33811,0.4126 0.054,-0.51557 -0.11018,-1.39307 -0.36489,-1.95 z m 12.08255,1.97328 c 0.54716,-1.20089 0.41408,-2.45235 -0.46427,-4.36593 -0.5792,-1.26183 -0.97752,-1.76995 -1.3875,-1.76995 -0.48667,0 -0.5467,0.14989 -0.3905,0.975 0.34761,1.8362 1.52868,5.925 1.71147,5.925 0.10045,0 0.33931,-0.34385 0.5308,-0.76412 z m -13.08321,-1.78751 c -0.56637,-2.45231 -0.57257,-2.46444 -1.02758,-2.00943 -0.258,0.258 -0.26277,0.52643 -0.0183,1.03 0.18183,0.37458 0.41946,1.0853 0.52806,1.57938 0.1839,0.83664 0.72765,1.77325 0.9186,1.5823 0.0461,-0.0461 -0.13419,-1.02815 -0.40074,-2.18225 z m 9.49182,-1.01286 c -0.2248,-1.97693 -0.46463,-3.01493 -0.67901,-2.93886 -0.46807,0.16611 -0.29251,3.01415 0.2948,4.78237 0.26668,0.80292 0.54043,1.4043 0.60832,1.33641 0.0679,-0.0679 -0.033,-1.49886 -0.22411,-3.17992 z m -4.44026,2.05368 c 0.39852,-0.21329 0.5798,-0.62918 0.5798,-1.33022 0,-1.27752 -0.50173,-2.64173 -0.92028,-2.50221 -0.26478,0.0883 -1.72653,3.81985 -1.76698,4.51081 -0.0131,0.22357 1.07901,-0.12797 2.10746,-0.67838 z m 15.5798,-0.73919 c 0,-0.9075 -0.135,-1.65 -0.3,-1.65 -0.165,0 -0.3,0.7425 -0.3,1.65 0,0.9075 0.135,1.65 0.3,1.65 0.165,0 0.3,-0.7425 0.3,-1.65 z m -27.30459,0.0927 c 0.002,-0.27902 -0.13041,-0.59074 -0.29541,-0.69271 -0.1802,-0.11137 -0.29816,0.2709 -0.2954,0.95729 0.003,0.84826 0.0795,1.02675 0.2954,0.69271 0.15995,-0.2475 0.29288,-0.67828 0.29541,-0.95729 z m 2.85912,0.94997 c 0.10446,-0.16903 0.10141,-0.71037 -0.007,-1.20299 l -0.19673,-0.89567 -0.54714,0.6757 c -0.39431,0.48695 -0.46832,0.823 -0.26496,1.20299 0.31645,0.59128 0.73068,0.681 1.01562,0.21997 z m 1.98481,-0.0953 c -0.18377,-0.22143 -0.2453,-0.49143 -0.13674,-0.6 0.10857,-0.10857 0.0399,-0.1974 -0.1526,-0.1974 -0.1925,0 -0.35,0.0565 -0.35,0.12546 0,0.069 -0.0819,0.33901 -0.18209,0.6 -0.1325,0.34527 1e-4,0.47454 0.48673,0.47454 0.5255,0 0.59723,-0.0863 0.3347,-0.4026 z m 9.99014,-0.7594 c -0.22019,-0.6391 -0.44065,-1.78649 -0.48991,-2.54976 -0.12616,-1.95466 -0.53957,-1.73212 -0.53957,0.29045 0,1.21624 0.17092,1.91872 0.62043,2.55 0.81865,1.14969 0.88826,1.10022 0.40905,-0.29069 z m -17.03079,-0.113 c -0.0832,-0.20625 -0.15132,-0.0375 -0.15132,0.375 0,0.4125 0.0681,0.58125 0.15132,0.375 0.0832,-0.20625 0.0832,-0.54375 0,-0.75 z m 11.86104,-1.10802 c 0.52297,-1.63539 0.44032,-1.94515 -0.39917,-1.49587 -0.41892,0.22419 -0.56056,0.63845 -0.56056,1.63944 0,0.7367 0.10924,1.33945 0.24274,1.33945 0.13351,0 0.45615,-0.66736 0.71699,-1.48302 z m 12.20284,-0.84198 -0.0374,-2.025 -0.25158,1.65 c -0.23959,1.5713 -0.18192,2.4 0.16702,2.4 0.0877,0 0.14258,-0.91125 0.12199,-2.025 z m 2.63199,-0.28652 c -0.57417,-1.14016 -1.2857,-2.26775 -1.58117,-2.50575 -0.45949,-0.37013 -0.44703,-0.28083 0.0862,0.61727 0.34286,0.5775 0.70528,1.39931 0.80539,1.82625 0.19337,0.82466 1.37125,2.49755 1.59852,2.27029 0.0743,-0.0743 -0.33473,-1.06791 -0.9089,-2.20806 z m -22.38467,0.66152 c 0.40711,-0.555 0.40074,-0.56912 -0.0849,-0.18827 -0.28875,0.22646 -0.525,0.55271 -0.525,0.725 0,0.1723 0.0382,0.25702 0.0849,0.18827 0.0467,-0.0687 0.28294,-0.395 0.525,-0.725 z m 1.87504,-0.45766 c -0.20809,-0.7957 -0.68493,-0.43918 -0.68493,0.5121 0,0.6243 0.0789,0.70358 0.41903,0.42126 0.23047,-0.19127 0.35012,-0.61128 0.2659,-0.93336 z m 22.43762,-0.44234 c 0.20987,-0.43179 0.13269,-1.04889 -0.27528,-2.20119 -0.44936,-1.26916 -0.83962,-1.78211 -1.88209,-2.47371 -0.72335,-0.47989 -1.41001,-0.87311 -1.52592,-0.87382 -0.48912,-0.003 0.0723,1.75828 1.00488,3.15243 0.55323,0.82705 1.27586,2.07147 1.60586,2.7654 0.39277,0.82592 0.63125,1.08367 0.69047,0.74628 0.0498,-0.28346 0.22169,-0.78539 0.38208,-1.11539 z m -36.82619,-3.75 c 1.09928,-3.39718 1.3556,-4.59282 2.31525,-10.8 0.44498,-2.87822 0.56795,-4.64103 0.42503,-6.09277 -0.1106,-1.12352 -0.24995,-1.99392 -0.30965,-1.93422 -0.0597,0.0597 -0.3127,1.38395 -0.56221,2.94277 -0.60005,3.74878 -1.90055,10.40414 -2.25387,11.53422 -0.15476,0.495 -0.56713,2.52 -0.91636,4.5 -0.34924,1.98 -0.7001,3.9375 -0.77969,4.35 -0.31106,1.61229 1.06926,-1.37185 2.0815,-4.5 z m 8.89955,4.10729 c -0.007,-1.04355 -0.33997,-2.01547 -0.63001,-1.83621 -0.30327,0.18743 -0.35564,1.64599 -0.0845,2.35266 0.24559,0.64 0.71954,0.29741 0.71447,-0.51645 z m 1.50409,-5.45729 c -0.17078,-7.17293 -0.6,-6.9416 -0.6,0.32338 0,2.85503 0.13222,4.88856 0.34873,5.36377 0.19181,0.42096 0.36056,0.73106 0.375,0.68912 0.0145,-0.042 -0.0412,-2.91127 -0.12373,-6.37627 z m 23.1,6 c 0,-0.2475 -0.135,-0.45 -0.3,-0.45 -0.165,0 -0.3,0.2025 -0.3,0.45 0,0.2475 0.135,0.45 0.3,0.45 0.165,0 0.3,-0.2025 0.3,-0.45 z m -20.93948,-2.35866 c -0.0911,-0.35274 -0.41154,-1.04634 -0.71199,-1.54134 l -0.54628,-0.9 0.01,2.4 0.01,2.4 0.70232,-0.85866 c 0.45378,-0.5548 0.64368,-1.08563 0.53661,-1.5 z m 5.84442,1.55241 c -0.0958,-0.23932 -0.16686,-0.16824 -0.18125,0.18125 -0.013,0.31625 0.0579,0.49344 0.15756,0.39375 0.0997,-0.0997 0.11035,-0.35844 0.0237,-0.575 z m 12.76581,-2.11875 c -0.31161,-0.66048 -0.50822,-0.051 -0.38707,1.2 l 0.138,1.425 0.17761,-1.2 c 0.0977,-0.66 0.12984,-1.30125 0.0715,-1.425 z m -12.67075,-1.27754 c 0,-2.47745 -0.0176,-2.54152 -0.6,-2.17784 -0.58006,0.36226 -0.74995,1.05875 -0.64161,2.63038 0.0982,1.42462 0.35464,2.1 0.79733,2.1 0.35757,0 0.44428,-0.49821 0.44428,-2.55254 z m 1.77964,2.26344 c 0.79083,-0.42324 0.99919,-2.33656 0.45427,-4.17149 -0.4136,-1.39275 -0.51789,-1.51557 -1.04664,-1.2326 -0.51598,0.27615 -0.58727,0.64077 -0.58727,3.00374 0,2.74719 0.1107,2.97243 1.17964,2.40035 z m -4.36872,-0.6859 c 0.0995,-0.37125 0.17707,-0.945 0.17241,-1.275 -0.006,-0.44953 -0.15264,-0.33669 -0.58333,0.45 -0.6955,1.27038 -0.72382,1.5 -0.18499,1.5 0.22826,0 0.49642,-0.30375 0.59591,-0.675 z m -8.66648,-3.30297 c -0.54731,-2.32677 -0.59067,-4.13787 -0.73796,-30.82203 -0.13237,-23.98284 -0.20269,-27.44884 -0.45648,-22.5 -0.165,3.2175 -0.3,16.1775 -0.3,28.8 l 0,22.95 0.74177,2.31823 c 1.01201,3.16278 1.54733,2.63208 0.75267,-0.7462 z m 6.58121,1.77441 c -0.1152,-0.52054 -0.19804,-4.30276 -0.18406,-8.40494 0.014,-4.10217 -0.0434,-7.38965 -0.12758,-7.30551 -0.0841,0.0841 -0.3566,1.01047 -0.60545,2.0585 -0.45012,1.89559 -0.4305,4.73101 0.0827,11.95551 0.19531,2.74939 0.29026,3.10862 0.74701,2.82633 0.1695,-0.10475 0.20698,-0.58944 0.0874,-1.12989 z m 11.14613,-1.77144 c 0.18602,-2.31711 0.15311,-2.625 -0.28052,-2.625 -0.42125,0 -0.49126,0.41472 -0.49126,2.91 0,3.59014 0.47475,3.41483 0.77178,-0.285 z m -2.56694,-1.875 c -0.23307,-0.96338 -0.56424,2.59076 -0.34942,3.75 0.16358,0.88268 0.21848,0.71537 0.34458,-1.05 0.0825,-1.155 0.0847,-2.37 0.005,-2.7 z m 18.53516,4.29 c 0.82502,-0.82502 0.3224,-5.77627 -1.42524,-14.04 -1.69073,-7.99459 -2.78551,-13.33114 -3.16952,-15.45 -0.31472,-1.7365 -0.38557,-1.89229 -0.40935,-0.9 -0.0793,3.30945 0.93709,25.47689 1.25171,27.3 0.35679,2.06748 0.38313,2.11045 1.70097,2.775 1.55652,0.7849 1.5782,0.78823 2.05143,0.315 z m -32.12782,-1.5115 c -0.0718,-0.37318 -0.13319,-0.1385 -0.13652,0.5215 -0.003,0.66 0.0554,0.96532 0.13047,0.6785 0.0751,-0.28683 0.0778,-0.82683 0.006,-1.2 z m 17.38296,-1.15265 0.0451,-2.52585 -0.2583,1.8 c -0.14207,0.99 -0.32992,2.1821 -0.41746,2.64911 -0.11141,0.59436 -0.0474,0.81212 0.21317,0.72585 0.25216,-0.0835 0.38688,-0.93837 0.41745,-2.64911 z m 2.20486,2.06883 c 0,-0.54973 -0.96394,-3.96574 -1.19313,-4.22821 -0.19224,-0.22015 0.19974,3.40248 0.45537,4.20853 0.15112,0.4765 0.73776,0.49215 0.73776,0.0197 z m 2.41582,-0.65307 c -0.31598,-0.83109 -0.69885,-1.11766 -0.4564,-0.34161 0.0773,0.2475 0.21126,0.67182 0.29764,0.94294 0.0864,0.27111 0.22517,0.42484 0.3084,0.3416 0.0832,-0.0832 0.0159,-0.50755 -0.14964,-0.94293 z m 1.38287,0.0334 c -0.0832,-0.20625 -0.15132,-0.0375 -0.15132,0.375 0,0.4125 0.0681,0.58125 0.15132,0.375 0.0832,-0.20625 0.0832,-0.54375 0,-0.75 z m -2.60049,-1.14389 c -0.10586,-1.10723 -0.34494,-1.92707 -0.61105,-2.0954 -0.49228,-0.3114 -0.88715,-0.36634 -0.88715,-0.12344 0,0.48912 1.28496,4.03773 1.46207,4.03773 0.11552,0 0.13177,-0.8185 0.0361,-1.81889 z m -14.09552,-1.22169 c -0.19899,-0.88518 -0.5362,-2.75692 -0.74937,-4.15942 l -0.38757,-2.55 -0.0329,3.33313 c -0.0181,1.83322 0.0544,3.96971 0.16103,4.74776 0.19262,1.4053 0.19778,1.41076 0.78224,0.8263 0.53849,-0.53849 0.55769,-0.72472 0.22655,-2.19777 z m -3.49708,-1.95081 c -0.21959,-3.72979 -0.23562,-3.79852 -0.48001,-2.05861 -0.23496,1.67275 -0.1249,3.85215 0.27722,5.48897 0.35417,1.44171 0.42204,0.29371 0.20279,-3.43036 z m 20.17092,2.06791 c -0.32264,-0.32265 -0.49393,0.12922 -0.26744,0.70554 0.21246,0.54062 0.22851,0.54156 0.33358,0.0195 0.0607,-0.30167 0.031,-0.62792 -0.0661,-0.725 z m 3.42348,0.86256 c 0,-0.14351 -0.2529,-1.05476 -0.562,-2.025 -0.54766,-1.71907 -1.27492,-6.36185 -1.80361,-11.51408 -0.2119,-2.06499 -0.2635,-1.13538 -0.27133,4.88753 l -0.01,7.43753 1.0983,0.71982 c 1.195,0.78319 1.5483,0.89596 1.5483,0.4942 z m -27.28214,-29.4208 c -0.04,-24.08958 -0.12061,-29.30998 -0.46711,-30.24191 -0.36249,-0.97493 -0.41086,2.88695 -0.35977,28.72363 0.0524,26.50326 0.16703,31.34199 0.72917,30.77985 0.0803,-0.0803 0.12429,-13.24802 0.0977,-29.26157 z m 28.08708,28.72547 c -0.0958,-0.23932 -0.16686,-0.16824 -0.18125,0.18125 -0.013,0.31625 0.0579,0.49344 0.15756,0.39375 0.0997,-0.0997 0.11035,-0.35844 0.0237,-0.575 z m -20.02686,-10.96919 -0.0219,-10.725 -0.59697,1.65 c -0.55005,1.5203 -0.58698,2.22775 -0.46976,9 0.0806,4.65983 0.27494,7.98136 0.53082,9.075 0.22199,0.94875 0.44324,1.725 0.49168,1.725 0.0484,0 0.0782,-4.82625 0.0661,-10.725 z m 2.07881,7.4679 -0.0431,-2.8929 -0.21172,2.4 c -0.11644,1.32 -0.30837,2.7029 -0.4265,3.07311 -0.1706,0.53461 -0.11816,0.63603 0.25483,0.4929 0.38558,-0.14796 0.4619,-0.69784 0.4265,-3.07311 z m 17.60694,0.9321 c -0.0949,-1.11375 -0.30617,-6.2775 -0.46956,-11.475 -0.65381,-20.7985 -0.59235,-19.67926 -1.66379,-30.3 -0.90813,-9.00199 -0.95248,-8.94134 -0.98702,1.35 -0.0476,14.16683 0.51423,26.38252 1.63369,35.52398 0.38486,3.14278 1.2209,6.92602 1.53055,6.92602 0.0707,0 0.051,-0.91125 -0.0439,-2.025 z m -3.80586,-15.75 c -0.0231,-9.61125 -0.13297,-20.31 -0.24411,-23.775 -0.13045,-4.06691 -0.22189,2.12726 -0.25796,17.475 -0.0369,15.68726 0.0462,23.775 0.2441,23.775 0.19705,0 0.28558,-5.99698 0.25797,-17.475 z m -12.25543,16.55718 c -0.0811,-0.2377 -0.19969,-7.78968 -0.26353,-16.78218 -0.0638,-8.9925 -0.22136,-16.0125 -0.35006,-15.6 -0.1287,0.4125 -0.24188,8.01528 -0.25151,16.89508 -0.0164,15.10641 0.0156,16.13781 0.49753,16.03218 0.29376,-0.0644 0.45168,-0.29857 0.36757,-0.54508 z m 10.77464,-22.55718 c -0.0195,-19.77376 -0.0822,-23.0209 -0.42718,-22.125 -0.32498,0.84389 -0.40883,5.32236 -0.42717,22.815 -0.022,20.98138 0.0306,22.485 0.78717,22.485 0.0495,0 0.0797,-10.42875 0.0672,-23.175 z m -9.5863,3.75 c -0.006,-13.04418 -0.10386,-18.66228 -0.31764,-18.29511 -0.20265,0.34805 -0.29968,6.56949 -0.28276,18.13011 0.0232,15.84069 0.10478,18.99 0.49205,18.99 0.0646,0 0.11337,-8.47125 0.10835,-18.825 z m 7.18185,17.65227 c -0.7909,-1.06974 -0.87516,-1.0657 -0.66429,0.0319 0.0855,0.44504 0.37732,0.85894 0.64851,0.91978 0.75095,0.16849 0.75299,0.0455 0.0158,-0.95166 z m -5.94983,-24.0908 c -0.0709,-13.43359 -0.22048,-22.6933 -0.33824,-20.93647 -0.11612,1.7325 -0.22768,11.73588 -0.2479,22.22973 -0.0344,17.84716 0.11883,24.48681 0.53752,23.29388 0.0967,-0.27537 0.11853,-11.33959 0.0486,-24.58714 z m -4.88467,18.21353 c 0.005,-2.64 -0.0959,-5.475 -0.22442,-6.3 -0.14724,-0.94529 -0.23534,1.16263 -0.23823,5.7 -0.002,3.96 0.0985,6.795 0.22442,6.3 0.12596,-0.495 0.23316,-3.06 0.23823,-5.7 z m 7.53895,3.075 c -0.0139,-2.05713 -0.18072,-3.78501 -0.42718,-4.425 -0.36956,-0.95965 -0.40631,-0.66924 -0.42717,3.375 -0.0193,3.74348 0.0465,4.425 0.42717,4.425 0.37469,0 0.44618,-0.56486 0.42718,-3.375 z m 1.14024,0.60537 c -0.0668,-0.5392 -0.12277,-0.17037 -0.12446,0.81963 -0.002,0.99 0.0529,1.43117 0.1214,0.98037 0.0685,-0.45079 0.0698,-1.26079 0.003,-1.8 z m 2.93258,-15.45546 c 0,-9.1987 -0.0981,-15.77991 -0.21788,-14.62491 -0.11983,1.155 -0.36446,3.34056 -0.54363,4.8568 -0.17916,1.51624 -0.31842,7.37354 -0.30946,13.01622 0.0139,8.76745 0.09,10.49338 0.52342,11.8682 0.27892,0.88483 0.51622,1.60874 0.52734,1.60869 0.0111,-5e-5 0.0202,-7.5263 0.0202,-16.725 z m -0.9267,16.08188 c -0.11666,-0.18876 -0.39738,-0.89751 -0.62382,-1.575 l -0.4117,-1.23179 0.14159,1.15177 c 0.0779,0.63347 0.29966,1.34222 0.49285,1.575 0.42137,0.50771 0.69973,0.56325 0.40108,0.08 z m -17.86547,-24.40679 c 0,-11.715 -0.11602,-21.57 -0.25783,-21.9 -0.14681,-0.34165 -0.25783,9.08801 -0.25783,21.9 0,12.81199 0.11102,22.24165 0.25783,21.9 0.14181,-0.33 0.25783,-10.185 0.25783,-21.9 z m -5.69643,15.825 -0.0386,-6.225 -0.3776,3.9 c -0.27709,2.862 -0.2943,4.51881 -0.0647,6.225 0.17212,1.27875 0.35941,2.325 0.4162,2.325 0.0568,0 0.0859,-2.80125 0.0647,-6.225 z m 22.45754,2.70669 c -0.0649,-0.62243 -0.11916,-0.18669 -0.1205,0.96831 -0.001,1.155 0.0518,1.66426 0.11808,1.13169 0.0663,-0.53257 0.0674,-1.47757 0.002,-2.1 z m -15.40203,1.26831 c 0.14702,-0.65728 0.11919,-0.77864 -0.1032,-0.45 -0.16749,0.2475 -0.30659,0.70875 -0.30911,1.025 -0.006,0.76753 0.16557,0.52808 0.41231,-0.575 z m 0.12651,-19.2 c -0.008,-8.745 -0.11746,-16.305 -0.24342,-16.8 -0.12595,-0.495 -0.23549,6.93 -0.24342,16.5 -0.008,9.95375 0.0959,17.14323 0.24342,16.8 0.14181,-0.33 0.25135,-7.755 0.24342,-16.5 z m 11.66152,15.39375 c -0.0958,-0.23932 -0.16686,-0.16824 -0.18125,0.18125 -0.013,0.31625 0.0579,0.49344 0.15756,0.39375 0.0997,-0.0997 0.11035,-0.35844 0.0237,-0.575 z m 1.56056,-6.01875 c -0.0233,-3.8957 -0.11527,-5.3845 -0.28271,-4.575 -0.29812,1.44129 -0.36684,9.86595 -0.0828,10.15 0.11,0.11 0.245,0.2 0.3,0.2 0.055,0 0.0845,-2.59875 0.0655,-5.775 z m -11.43865,-8.325 c 0.0702,-8.90686 0.0272,-9.90566 -0.49763,-11.55 l -0.57449,-1.8 -0.003,12.6 c -0.003,11.98371 0.0216,12.54864 0.49764,11.55 0.43006,-0.90219 0.51134,-2.42259 0.57738,-10.8 z m 9.89432,6.525 c -0.0606,-0.86625 -0.11018,-0.1575 -0.11018,1.575 0,1.7325 0.0496,2.44125 0.11018,1.575 0.0606,-0.86625 0.0606,-2.28375 0,-3.15 z m -5.53868,-2.325 c 0.0902,-3.0525 0.1042,-5.28 0.0312,-4.95 -0.073,0.33 -0.34096,1.38708 -0.59548,2.34908 -0.39889,1.50766 -0.41116,2.20104 -0.0889,5.02341 0.20562,1.80088 0.39983,3.2413 0.43156,3.20092 0.0317,-0.0404 0.13146,-2.57091 0.22162,-5.62341 z m -14.86355,2.48169 c -0.0649,-0.62243 -0.11916,-0.18669 -0.1205,0.96831 -0.001,1.155 0.0518,1.66426 0.11808,1.13169 0.0663,-0.53257 0.0674,-1.47757 0.002,-2.1 z m 24.01974,-7.88169 c -0.0565,-6.99416 -0.1844,-6.16932 -0.3097,1.99779 -0.0434,2.83128 0.0202,4.99128 0.14143,4.8 0.12122,-0.19129 0.19695,-3.25029 0.16827,-6.79779 z m -24.15051,-29.4 c -0.0644,-17.2425 -0.21704,-32.969999 -0.33931,-34.949999 l -0.22229,-3.6 -0.21422,2.25 c -1.02612,10.777909 -0.78557,65.947589 0.30609,70.199999 0.49033,1.91003 0.5794,-4.51822 0.46973,-33.9 z m 12.75525,32.1 c -0.008,-0.7425 -0.11746,-1.755 -0.24342,-2.25 -0.15442,-0.60687 -0.2337,0.0282 -0.24342,1.95 -0.009,1.84281 0.0767,2.63796 0.24342,2.25 0.14181,-0.33 0.25135,-1.2075 0.24342,-1.95 z m 2.24954,-13.65 c 0.067,-9.51204 -0.65811,-62.915159 -0.85695,-63.113989 -0.0748,-0.0748 -0.12266,16.525239 -0.10635,36.888989 0.0264,32.91493 0.0783,36.87514 0.46796,35.675 0.33339,-1.02688 0.45196,-3.28875 0.49534,-9.45 z m -3.48616,7.425 c -0.0755,-0.28875 -0.1372,-0.0525 -0.1372,0.525 0,0.5775 0.0617,0.81375 0.1372,0.525 0.0755,-0.28875 0.0755,-0.76125 0,-1.05 z m 11.69814,-4.33125 c -0.0958,-0.23932 -0.16686,-0.16824 -0.18125,0.18125 -0.013,0.31625 0.0579,0.49344 0.15756,0.39375 0.0997,-0.0997 0.11035,-0.35844 0.0237,-0.575 z m 2.28809,-1.74375 c 0.0968,-1.2375 0.0656,-2.0475 -0.0693,-1.8 -0.34675,0.63604 -0.68526,3.55772 -0.45531,3.92978 0.29172,0.47202 0.33475,0.29736 0.52462,-2.12978 z m -1.37133,-4.125 c -0.0595,-0.94875 -0.10825,-0.1725 -0.10825,1.725 0,1.8975 0.0487,2.67375 0.10825,1.725 0.0595,-0.94875 0.0595,-2.50125 0,-3.45 z m -0.89673,-54.876629 c -0.0436,-11.02661 -0.0793,-2.09337 -0.0793,19.851629 -10e-6,21.945 0.0357,30.96676 0.0793,20.04837 0.0436,-10.9184 0.0436,-28.8734 2e-5,-39.899999 z m -5.10154,20.961709 c 0.0404,-19.090539 -0.0391,-40.852579 -0.17672,-48.360079 -0.19773,-10.78907 -0.26097,-3.6839 -0.30174,33.9 -0.0283,26.152499 -0.13517,48.089999 -0.23734,48.749999 -0.1568,1.01286 -0.12119,1.13919 0.2283,0.81008 0.34663,-0.3264 0.42603,-6.04327 0.4875,-35.1 z m 7.98295,18.38992 c 0.0382,-7.53786 -0.032,-12.44007 -0.15895,-11.1 -0.12507,1.32 -0.36786,3.75 -0.53952,5.4 -0.23945,2.30155 -0.47806,20.3212 -0.28999,21.9 0.0197,0.165 0.23469,-0.375 0.47787,-1.2 0.3557,-1.20678 0.45551,-4.13904 0.51059,-15 z m 1.68784,1.975 c 0.003,-2.70875 -0.0443,-4.86875 -0.10559,-4.8 -0.0612,0.0687 -0.19941,2.42 -0.30702,5.225 -0.1076,2.805 -0.25741,5.64 -0.33292,6.3 -0.13149,1.14949 -0.11881,1.13686 0.30123,-0.3 0.30459,-1.04192 0.44028,-3.00404 0.4443,-6.425 z m 3.41677,0.95 c -0.0951,-3.75375 -0.273,-7.23 -0.39527,-7.725 -0.43185,-1.74837 -0.66261,3.13031 -0.31927,6.75 0.17998,1.8975 0.4089,4.42875 0.5087,5.625 0.0998,1.19625 0.22586,2.175 0.28014,2.175 0.0543,0 0.0208,-3.07125 -0.0743,-6.825 z m -1.98896,-9.88905 c -0.0597,-0.95477 -0.10913,-0.25095 -0.10981,1.56405 -6e-4,1.815 0.0482,2.59618 0.10858,1.73595 0.0604,-0.86022 0.0609,-2.34522 0.001,-3.3 z m -26.3996,-0.74919 c -0.0588,-1.03772 -0.10731,-0.26676 -0.1079,1.71324 -6e-4,1.98 0.0475,2.82904 0.10682,1.88676 0.0593,-0.94229 0.0598,-2.56229 0.001,-3.6 z m 24.63697,-12.83676 c 0.18223,-6.67004 0.15043,-13.872409 -0.10066,-22.799999 l -0.36704,-13.05 0.0138,25.049999 c 0.008,13.7775 0.0529,24.0375 0.10066,22.8 0.0478,-1.2375 0.20677,-6.6375 0.35328,-12 z m 3.06084,6 c -0.0341,-3.7125 -0.16767,-7.965 -0.2969,-9.45 -0.16532,-1.89971 -0.24242,0.32333 -0.26013,7.5 -0.0185,7.51238 0.0597,10.00238 0.29689,9.45 0.20431,-0.47577 0.29943,-3.21808 0.26014,-7.5 z m -2.5153,6.54375 c -0.0958,-0.23932 -0.16686,-0.16824 -0.18125,0.18125 -0.013,0.31625 0.0579,0.49344 0.15756,0.39375 0.0997,-0.0997 0.11035,-0.35844 0.0237,-0.575 z m 0.90724,-4.51525 c -0.0718,-0.37318 -0.13319,-0.1385 -0.13652,0.5215 -0.003,0.66 0.0554,0.96532 0.13047,0.6785 0.0751,-0.28683 0.0778,-0.82683 0.006,-1.2 z m -3.2817,-21.678499 c -0.006,-9.57 -0.10173,-21.585 -0.21388,-26.7 -0.1361,-6.20732 -0.2072,0.42698 -0.21381,19.95 -0.005,16.087499 0.0908,28.102499 0.21389,26.699999 0.12307,-1.4025 0.21928,-10.38 0.2138,-19.949999 z m 3.26821,18.674999 c -0.0832,-0.20625 -0.15132,-0.0375 -0.15132,0.375 0,0.4125 0.0681,0.58125 0.15132,0.375 0.0832,-0.20625 0.0832,-0.54375 0,-0.75 z m 2.38574,-14.25 c -0.25038,-10.688669 -0.93585,-22.523579 -1.28437,-22.175069 -0.15475,0.15477 0.72406,25.611909 0.99469,28.813349 0.3863,4.56994 0.49427,2.09567 0.28968,-6.63828 z m -2.05994,-16.199999 c -0.0495,-2.76375 -0.09,-0.5025 -0.09,5.025 0,5.5275 0.0405,7.78875 0.09,5.025 0.0495,-2.76375 0.0495,-7.28625 0,-10.05 z m -29.10961,-3.6 c -0.0687,-0.45375 -0.12498,-0.0825 -0.12498,0.825 0,0.9075 0.0562,1.27875 0.12498,0.825 0.0687,-0.45375 0.0687,-1.19625 0,-1.65 z m -0.008,-2.4 c -0.0755,-0.28875 -0.1372,-0.0525 -0.1372,0.525 0,0.5775 0.0617,0.81375 0.1372,0.525 0.0755,-0.28875 0.0755,-0.76125 0,-1.05 z m 23.11778,-23.53111 c -0.0498,-2.69164 -0.0906,-0.57389 -0.0907,4.70611 -1.2e-4,5.28 0.0406,7.48225 0.0905,4.89389 0.0499,-2.58836 0.05,-6.90836 2.2e-4,-9.6 z m 4.28909,-0.0939 c -0.22975,-1.42194 -0.26173,-0.82909 -0.15224,2.8227 0.0762,2.54248 0.16945,6.11998 0.20716,7.95 0.0377,1.83001 0.10623,0.5598 0.15225,-2.8227 0.046,-3.3825 -0.0472,-6.96 -0.20717,-7.95 z m -4.30575,-6.36929 c -0.0761,-0.29189 -0.1433,-0.12571 -0.14941,0.36929 -0.006,0.495 0.0561,0.73382 0.13829,0.53071 0.0822,-0.20311 0.0872,-0.60811 0.0111,-0.9 z m -20.4579,0.009 c -2.77553,-0.18988 -8.38727,-1.00752 -9.93927,-1.44818 -1.86152,-0.52853 -4.87905,-2.68356 -5.76513,-4.11728 -1.0557,-1.70816 -0.78599,-4.578814 0.61989,-6.597614 0.88529,-1.271253 2.97081,-2.342942 4.94537,-2.541283 1.00088,-0.100538 2.04285,-0.410329 2.4546,-0.729785 0.3935,-0.305299 0.94675,-0.555089 1.22944,-0.555089 0.3105,0 0.73084,-0.480924 1.06177,-1.214777 1.14836,-2.546614 3.74073,-3.89302 6.39472,-3.321238 1.36187,0.293406 1.41832,0.276331 2.14861,-0.649969 1.84052,-2.334495 3.54148,-3.488478 6.08662,-4.129351 1.71854,-0.432733 3.72434,-0.04323 6.26256,1.216113 1.39015,0.689722 2.22098,0.899222 3.56612,0.899222 2.29207,0 6.19579,1.240554 7.8491,2.494346 0.70708,0.536217 1.6906,1.613951 2.1856,2.394965 0.74364,1.173311 1.01923,1.39167 1.58624,1.256821 1.15953,-0.275766 3.00797,0.402699 3.71964,1.365286 0.38995,0.527433 0.93165,0.888582 1.33283,0.888582 0.37174,0 0.75533,0.128552 0.85243,0.285671 0.0971,0.15712 1.10457,0.282739 2.2388,0.279154 3.29615,-0.01042 5.85866,1.711965 6.32274,4.249813 0.32623,1.783993 -0.10051,2.962023 -1.60943,4.442923 -1.19281,1.17065 -1.50772,1.31573 -3.37932,1.55688 -1.13516,0.14626 -3.75143,0.27067 -5.81393,0.27647 -8.51814,0.0239 -15.9295,0.95847 -18.97366,2.39244 -1.03198,0.48612 -2.75384,1.02522 -3.82634,1.19799 -1.80371,0.29056 -8.0297,0.34872 -11.55,0.10789 z"
     id="path3634"
     inkscape:connector-curvature="0" />
</svg>
